# This file uses centimeters as units for non-parametric coordinates.

mtllib dragonTeethDOWN.mtl
g dragonTeeth:default1
v 0.581989 -0.470857 -0.235614
v 0.515236 -0.470857 -0.131226
v 0.581989 -0.470857 -0.026838
v 0.648741 -0.470857 -0.131226
v 0.581989 -0.207695 -0.131226
v 0.581989 -0.470857 -0.068235
v 0.515236 -0.470857 0.036153
v 0.581989 -0.470857 0.140540
v 0.648741 -0.470857 0.036153
v 0.581989 -0.207695 0.036153
v 0.581989 -0.470857 0.114026
v 0.515236 -0.470857 0.218414
v 0.581989 -0.470857 0.322801
v 0.648741 -0.470857 0.218414
v 0.581989 -0.207695 0.218414
v 0.581989 -0.470857 0.281464
v 0.515236 -0.470857 0.385852
v 0.581989 -0.470857 0.490239
v 0.648741 -0.470857 0.385852
v 0.581989 -0.207695 0.385852
v 0.581989 -0.470857 0.445796
v 0.515236 -0.470857 0.550184
v 0.581989 -0.470857 0.654572
v 0.648741 -0.470857 0.550184
v 0.581989 -0.207695 0.550184
v 0.570379 -0.494451 0.584679
v 0.465991 -0.494451 0.513382
v 0.361604 -0.494451 0.584679
v 0.465991 -0.494451 0.655976
v 0.465991 -0.208506 0.584679
v 0.412204 -0.485326 0.579242
v 0.307816 -0.485326 0.507945
v 0.203428 -0.485326 0.579242
v 0.307816 -0.485326 0.650539
v 0.307816 -0.208193 0.579242
v 0.273169 -0.485326 0.579242
v 0.168782 -0.485326 0.507945
v 0.064394 -0.485326 0.579242
v 0.168782 -0.485326 0.650539
v 0.168782 -0.208193 0.579242
v 0.134506 -0.485326 0.579242
v 0.030118 -0.485326 0.507945
v -0.074270 -0.485326 0.579242
v 0.030118 -0.485326 0.650539
v 0.030118 -0.208193 0.579242
v -0.010746 -0.485326 0.579242
v -0.115134 -0.485326 0.507945
v -0.219521 -0.485326 0.579242
v -0.115134 -0.485326 0.650539
v -0.115134 -0.208193 0.579242
v -0.579982 -0.470857 0.445796
v -0.651279 -0.470857 0.550184
v -0.579982 -0.470857 0.654572
v -0.508685 -0.470857 0.550184
v -0.579982 -0.207695 0.550184
v -0.316688 -0.487182 0.581969
v -0.421076 -0.487182 0.510672
v -0.525464 -0.487182 0.581969
v -0.421076 -0.487182 0.653266
v -0.421076 -0.208256 0.581969
v -0.154015 -0.485326 0.579242
v -0.258402 -0.485326 0.507945
v -0.362790 -0.485326 0.579242
v -0.258402 -0.485326 0.650539
v -0.258402 -0.208193 0.579242
v -0.579982 -0.470857 0.281464
v -0.651279 -0.470857 0.385852
v -0.579982 -0.470857 0.490239
v -0.508685 -0.470857 0.385852
v -0.579982 -0.207695 0.385852
v -0.579982 -0.470857 0.114026
v -0.651279 -0.470857 0.218414
v -0.579982 -0.470857 0.322801
v -0.508685 -0.470857 0.218414
v -0.579982 -0.207695 0.218414
v -0.579982 -0.470857 -0.068235
v -0.651279 -0.470857 0.036153
v -0.579982 -0.470857 0.140540
v -0.508685 -0.470857 0.036153
v -0.579982 -0.207695 0.036153
v -0.579982 -0.470857 -0.235614
v -0.651279 -0.470857 -0.131226
v -0.579982 -0.470857 -0.026838
v -0.508685 -0.470857 -0.131226
v -0.579982 -0.207695 -0.131226
vt 0.500000 0.000000
vt 0.750000 0.250000
vt 0.250000 0.250000
vt 0.500000 0.500000
vt 0.250000 0.500000
vt 0.375000 0.500000
vt 0.500000 1.000000
vt 0.500000 0.500000
vt 0.625000 0.500000
vt 0.750000 0.500000
vt 0.500000 0.000000
vt 0.750000 0.250000
vt 0.250000 0.250000
vt 0.500000 0.500000
vt 0.250000 0.500000
vt 0.375000 0.500000
vt 0.500000 1.000000
vt 0.500000 0.500000
vt 0.625000 0.500000
vt 0.750000 0.500000
vt 0.500000 0.000000
vt 0.750000 0.250000
vt 0.250000 0.250000
vt 0.500000 0.500000
vt 0.250000 0.500000
vt 0.375000 0.500000
vt 0.500000 1.000000
vt 0.500000 0.500000
vt 0.625000 0.500000
vt 0.750000 0.500000
vt 0.500000 0.000000
vt 0.750000 0.250000
vt 0.250000 0.250000
vt 0.500000 0.500000
vt 0.250000 0.500000
vt 0.375000 0.500000
vt 0.500000 1.000000
vt 0.500000 0.500000
vt 0.625000 0.500000
vt 0.750000 0.500000
vt 0.500000 0.000000
vt 0.750000 0.250000
vt 0.250000 0.250000
vt 0.500000 0.500000
vt 0.250000 0.500000
vt 0.375000 0.500000
vt 0.500000 1.000000
vt 0.500000 0.500000
vt 0.625000 0.500000
vt 0.750000 0.500000
vt 0.500000 0.000000
vt 0.750000 0.250000
vt 0.250000 0.250000
vt 0.500000 0.500000
vt 0.250000 0.500000
vt 0.375000 0.500000
vt 0.500000 1.000000
vt 0.500000 0.500000
vt 0.625000 0.500000
vt 0.750000 0.500000
vt 0.500000 0.000000
vt 0.750000 0.250000
vt 0.250000 0.250000
vt 0.500000 0.500000
vt 0.250000 0.500000
vt 0.375000 0.500000
vt 0.500000 1.000000
vt 0.500000 0.500000
vt 0.625000 0.500000
vt 0.750000 0.500000
vt 0.500000 0.000000
vt 0.750000 0.250000
vt 0.250000 0.250000
vt 0.500000 0.500000
vt 0.250000 0.500000
vt 0.375000 0.500000
vt 0.500000 1.000000
vt 0.500000 0.500000
vt 0.625000 0.500000
vt 0.750000 0.500000
vt 0.500000 0.000000
vt 0.750000 0.250000
vt 0.250000 0.250000
vt 0.500000 0.500000
vt 0.250000 0.500000
vt 0.375000 0.500000
vt 0.500000 1.000000
vt 0.500000 0.500000
vt 0.625000 0.500000
vt 0.750000 0.500000
vt 0.500000 0.000000
vt 0.750000 0.250000
vt 0.250000 0.250000
vt 0.500000 0.500000
vt 0.250000 0.500000
vt 0.375000 0.500000
vt 0.500000 1.000000
vt 0.500000 0.500000
vt 0.625000 0.500000
vt 0.750000 0.500000
vt 0.500000 0.000000
vt 0.750000 0.250000
vt 0.250000 0.250000
vt 0.500000 0.500000
vt 0.250000 0.500000
vt 0.375000 0.500000
vt 0.500000 1.000000
vt 0.500000 0.500000
vt 0.625000 0.500000
vt 0.750000 0.500000
vt 0.500000 0.000000
vt 0.750000 0.250000
vt 0.250000 0.250000
vt 0.500000 0.500000
vt 0.250000 0.500000
vt 0.375000 0.500000
vt 0.500000 1.000000
vt 0.500000 0.500000
vt 0.625000 0.500000
vt 0.750000 0.500000
vt 0.500000 0.000000
vt 0.750000 0.250000
vt 0.250000 0.250000
vt 0.500000 0.500000
vt 0.250000 0.500000
vt 0.375000 0.500000
vt 0.500000 1.000000
vt 0.500000 0.500000
vt 0.625000 0.500000
vt 0.750000 0.500000
vt 0.500000 0.000000
vt 0.750000 0.250000
vt 0.250000 0.250000
vt 0.500000 0.500000
vt 0.250000 0.500000
vt 0.375000 0.500000
vt 0.500000 1.000000
vt 0.500000 0.500000
vt 0.625000 0.500000
vt 0.750000 0.500000
vt 0.500000 0.000000
vt 0.750000 0.250000
vt 0.250000 0.250000
vt 0.500000 0.500000
vt 0.250000 0.500000
vt 0.375000 0.500000
vt 0.500000 1.000000
vt 0.500000 0.500000
vt 0.625000 0.500000
vt 0.750000 0.500000
vt 0.500000 0.000000
vt 0.750000 0.250000
vt 0.250000 0.250000
vt 0.500000 0.500000
vt 0.250000 0.500000
vt 0.375000 0.500000
vt 0.500000 1.000000
vt 0.500000 0.500000
vt 0.625000 0.500000
vt 0.750000 0.500000
vt 0.500000 0.000000
vt 0.750000 0.250000
vt 0.250000 0.250000
vt 0.500000 0.500000
vt 0.250000 0.500000
vt 0.375000 0.500000
vt 0.500000 1.000000
vt 0.500000 0.500000
vt 0.625000 0.500000
vt 0.750000 0.500000
vn 0.000000 -1.000000 0.000000
vn 0.000000 -1.000000 0.000000
vn 0.000000 -1.000000 0.000000
vn 0.000000 -1.000000 0.000000
vn 0.000000 -1.000000 0.000000
vn 0.000000 -1.000000 0.000000
vn -0.823358 0.211815 -0.526513
vn -0.823358 0.211815 -0.526513
vn -0.823358 0.211815 -0.526513
vn -0.823358 0.211814 0.526513
vn -0.823358 0.211814 0.526513
vn -0.823358 0.211814 0.526513
vn 0.823358 0.211814 0.526513
vn 0.823358 0.211814 0.526513
vn 0.823358 0.211814 0.526513
vn 0.823358 0.211814 -0.526513
vn 0.823358 0.211814 -0.526513
vn 0.823358 0.211814 -0.526513
vn 0.000000 -1.000000 0.000000
vn 0.000000 -1.000000 0.000000
vn 0.000000 -1.000000 0.000000
vn 0.000000 -1.000000 0.000000
vn 0.000000 -1.000000 0.000000
vn 0.000000 -1.000000 0.000000
vn -0.823358 0.211814 -0.526513
vn -0.823358 0.211814 -0.526513
vn -0.823358 0.211814 -0.526513
vn -0.823358 0.211815 0.526513
vn -0.823358 0.211815 0.526513
vn -0.823358 0.211815 0.526513
vn 0.823358 0.211814 0.526513
vn 0.823358 0.211814 0.526513
vn 0.823358 0.211814 0.526513
vn 0.823358 0.211814 -0.526513
vn 0.823358 0.211814 -0.526513
vn 0.823358 0.211814 -0.526513
vn 0.000000 -1.000000 0.000000
vn 0.000000 -1.000000 0.000000
vn 0.000000 -1.000000 0.000000
vn 0.000000 -1.000000 0.000000
vn 0.000000 -1.000000 0.000000
vn 0.000000 -1.000000 0.000000
vn -0.823358 0.211815 -0.526513
vn -0.823358 0.211815 -0.526513
vn -0.823358 0.211815 -0.526513
vn -0.823358 0.211814 0.526513
vn -0.823358 0.211814 0.526513
vn -0.823358 0.211814 0.526513
vn 0.823358 0.211814 0.526513
vn 0.823358 0.211814 0.526513
vn 0.823358 0.211814 0.526513
vn 0.823358 0.211814 -0.526513
vn 0.823358 0.211814 -0.526513
vn 0.823358 0.211814 -0.526513
vn 0.000000 -1.000000 0.000000
vn 0.000000 -1.000000 0.000000
vn 0.000000 -1.000000 0.000000
vn 0.000000 -1.000000 0.000000
vn 0.000000 -1.000000 0.000000
vn 0.000000 -1.000000 0.000000
vn -0.823358 0.211814 -0.526513
vn -0.823358 0.211814 -0.526513
vn -0.823358 0.211814 -0.526513
vn -0.823358 0.211814 0.526513
vn -0.823358 0.211814 0.526513
vn -0.823358 0.211814 0.526513
vn 0.823358 0.211814 0.526513
vn 0.823358 0.211814 0.526513
vn 0.823358 0.211814 0.526513
vn 0.823358 0.211814 -0.526513
vn 0.823358 0.211814 -0.526513
vn 0.823358 0.211814 -0.526513
vn 0.000000 -1.000000 0.000000
vn 0.000000 -1.000000 0.000000
vn 0.000000 -1.000000 0.000000
vn 0.000000 -1.000000 0.000000
vn 0.000000 -1.000000 0.000000
vn 0.000000 -1.000000 0.000000
vn -0.823358 0.211814 -0.526513
vn -0.823358 0.211814 -0.526513
vn -0.823358 0.211814 -0.526513
vn -0.823359 0.211814 0.526513
vn -0.823358 0.211814 0.526513
vn -0.823358 0.211814 0.526513
vn 0.823358 0.211814 0.526513
vn 0.823359 0.211814 0.526513
vn 0.823358 0.211814 0.526513
vn 0.823358 0.211814 -0.526513
vn 0.823358 0.211814 -0.526513
vn 0.823358 0.211814 -0.526513
vn 0.000000 -1.000000 0.000000
vn 0.000000 -1.000000 0.000000
vn 0.000000 -1.000000 0.000000
vn 0.000000 -1.000000 0.000000
vn 0.000000 -1.000000 0.000000
vn 0.000000 -1.000000 0.000000
vn 0.550023 0.221273 -0.805303
vn 0.550023 0.221273 -0.805303
vn 0.550023 0.221273 -0.805303
vn -0.550023 0.221273 -0.805303
vn -0.550023 0.221273 -0.805303
vn -0.550023 0.221273 -0.805303
vn -0.550022 0.221273 0.805304
vn -0.550022 0.221273 0.805304
vn -0.550022 0.221273 0.805304
vn 0.550022 0.221273 0.805304
vn 0.550022 0.221273 0.805304
vn 0.550022 0.221273 0.805304
vn 0.000000 -1.000000 0.000000
vn 0.000000 -1.000000 0.000000
vn 0.000000 -1.000000 0.000000
vn 0.000000 -1.000000 0.000000
vn 0.000000 -1.000000 0.000000
vn 0.000000 -1.000000 0.000000
vn 0.550023 0.221273 -0.805303
vn 0.550023 0.221273 -0.805303
vn 0.550023 0.221273 -0.805303
vn -0.550023 0.221273 -0.805303
vn -0.550023 0.221273 -0.805303
vn -0.550023 0.221273 -0.805303
vn -0.550023 0.221273 0.805303
vn -0.550023 0.221273 0.805303
vn -0.550023 0.221273 0.805303
vn 0.550023 0.221273 0.805303
vn 0.550023 0.221273 0.805303
vn 0.550023 0.221273 0.805303
vn 0.000000 -1.000000 0.000000
vn 0.000000 -1.000000 0.000000
vn 0.000000 -1.000000 0.000000
vn 0.000000 -1.000000 0.000000
vn 0.000000 -1.000000 0.000000
vn 0.000000 -1.000000 0.000000
vn 0.550023 0.221273 -0.805303
vn 0.550023 0.221273 -0.805303
vn 0.550023 0.221273 -0.805303
vn -0.550023 0.221273 -0.805303
vn -0.550023 0.221273 -0.805303
vn -0.550023 0.221273 -0.805303
vn -0.550023 0.221273 0.805303
vn -0.550023 0.221273 0.805303
vn -0.550023 0.221273 0.805303
vn 0.550023 0.221273 0.805303
vn 0.550023 0.221273 0.805303
vn 0.550023 0.221273 0.805303
vn 0.000000 -1.000000 0.000000
vn 0.000000 -1.000000 0.000000
vn 0.000000 -1.000000 0.000000
vn 0.000000 -1.000000 0.000000
vn 0.000000 -1.000000 0.000000
vn 0.000000 -1.000000 0.000000
vn 0.550023 0.221273 -0.805303
vn 0.550023 0.221273 -0.805303
vn 0.550023 0.221273 -0.805303
vn -0.550023 0.221273 -0.805303
vn -0.550023 0.221273 -0.805303
vn -0.550023 0.221273 -0.805303
vn -0.550023 0.221273 0.805303
vn -0.550023 0.221273 0.805303
vn -0.550023 0.221273 0.805303
vn 0.550023 0.221273 0.805303
vn 0.550023 0.221273 0.805303
vn 0.550023 0.221273 0.805303
vn 0.000000 -1.000000 0.000000
vn 0.000000 -1.000000 0.000000
vn 0.000000 -1.000000 0.000000
vn 0.000000 -1.000000 0.000000
vn 0.000000 -1.000000 0.000000
vn 0.000000 -1.000000 0.000000
vn 0.550023 0.221273 -0.805303
vn 0.550023 0.221273 -0.805303
vn 0.550023 0.221273 -0.805303
vn -0.550023 0.221273 -0.805303
vn -0.550023 0.221273 -0.805303
vn -0.550023 0.221273 -0.805303
vn -0.550023 0.221273 0.805303
vn -0.550023 0.221273 0.805303
vn -0.550023 0.221273 0.805303
vn 0.550023 0.221273 0.805303
vn 0.550023 0.221273 0.805303
vn 0.550023 0.221273 0.805303
vn 0.000000 -1.000000 0.000000
vn 0.000000 -1.000000 0.000000
vn 0.000000 -1.000000 0.000000
vn 0.000000 -1.000000 0.000000
vn 0.000000 -1.000000 0.000000
vn 0.000000 -1.000000 0.000000
vn -0.805303 0.221273 -0.550023
vn -0.805303 0.221273 -0.550023
vn -0.805303 0.221273 -0.550023
vn -0.805303 0.221273 0.550023
vn -0.805303 0.221273 0.550023
vn -0.805303 0.221273 0.550023
vn 0.805303 0.221272 0.550023
vn 0.805303 0.221272 0.550023
vn 0.805303 0.221272 0.550023
vn 0.805303 0.221272 -0.550023
vn 0.805303 0.221272 -0.550023
vn 0.805303 0.221272 -0.550023
vn 0.000000 -1.000000 0.000000
vn 0.000000 -1.000000 0.000000
vn 0.000000 -1.000000 0.000000
vn 0.000000 -1.000000 0.000000
vn 0.000000 -1.000000 0.000000
vn 0.000000 -1.000000 0.000000
vn 0.550023 0.221273 -0.805303
vn 0.550023 0.221273 -0.805303
vn 0.550023 0.221273 -0.805303
vn -0.550023 0.221273 -0.805303
vn -0.550023 0.221273 -0.805303
vn -0.550023 0.221273 -0.805303
vn -0.550024 0.221272 0.805303
vn -0.550024 0.221272 0.805303
vn -0.550024 0.221272 0.805303
vn 0.550024 0.221273 0.805303
vn 0.550024 0.221273 0.805303
vn 0.550024 0.221273 0.805303
vn 0.000000 -1.000000 0.000000
vn 0.000000 -1.000000 0.000000
vn 0.000000 -1.000000 0.000000
vn 0.000000 -1.000000 0.000000
vn 0.000000 -1.000000 0.000000
vn 0.000000 -1.000000 0.000000
vn 0.550023 0.221273 -0.805303
vn 0.550023 0.221273 -0.805303
vn 0.550023 0.221273 -0.805303
vn -0.550023 0.221273 -0.805303
vn -0.550023 0.221273 -0.805303
vn -0.550023 0.221273 -0.805303
vn -0.550023 0.221273 0.805303
vn -0.550023 0.221273 0.805303
vn -0.550023 0.221273 0.805303
vn 0.550023 0.221273 0.805303
vn 0.550023 0.221273 0.805303
vn 0.550023 0.221273 0.805303
vn 0.000000 -1.000000 0.000000
vn 0.000000 -1.000000 0.000000
vn 0.000000 -1.000000 0.000000
vn 0.000000 -1.000000 0.000000
vn 0.000000 -1.000000 0.000000
vn 0.000000 -1.000000 0.000000
vn -0.805303 0.221273 -0.550023
vn -0.805303 0.221273 -0.550023
vn -0.805303 0.221273 -0.550023
vn -0.805303 0.221273 0.550023
vn -0.805303 0.221273 0.550023
vn -0.805303 0.221273 0.550023
vn 0.805303 0.221272 0.550023
vn 0.805303 0.221272 0.550023
vn 0.805303 0.221272 0.550023
vn 0.805303 0.221272 -0.550023
vn 0.805303 0.221272 -0.550023
vn 0.805303 0.221272 -0.550023
vn 0.000000 -1.000000 0.000000
vn 0.000000 -1.000000 0.000000
vn 0.000000 -1.000000 0.000000
vn 0.000000 -1.000000 0.000000
vn 0.000000 -1.000000 0.000000
vn 0.000000 -1.000000 0.000000
vn -0.805303 0.221272 -0.550023
vn -0.805303 0.221272 -0.550023
vn -0.805303 0.221272 -0.550023
vn -0.805303 0.221272 0.550023
vn -0.805303 0.221272 0.550023
vn -0.805303 0.221272 0.550023
vn 0.805303 0.221273 0.550023
vn 0.805303 0.221273 0.550023
vn 0.805303 0.221273 0.550023
vn 0.805303 0.221273 -0.550023
vn 0.805303 0.221273 -0.550023
vn 0.805303 0.221273 -0.550023
vn 0.000000 -1.000000 0.000000
vn 0.000000 -1.000000 0.000000
vn 0.000000 -1.000000 0.000000
vn 0.000000 -1.000000 0.000000
vn 0.000000 -1.000000 0.000000
vn 0.000000 -1.000000 0.000000
vn -0.805303 0.221273 -0.550023
vn -0.805303 0.221273 -0.550023
vn -0.805303 0.221273 -0.550023
vn -0.805303 0.221272 0.550023
vn -0.805303 0.221272 0.550023
vn -0.805303 0.221272 0.550023
vn 0.805303 0.221273 0.550023
vn 0.805303 0.221273 0.550023
vn 0.805303 0.221273 0.550023
vn 0.805303 0.221273 -0.550023
vn 0.805303 0.221273 -0.550023
vn 0.805303 0.221273 -0.550023
vn 0.000000 -1.000000 0.000000
vn 0.000000 -1.000000 0.000000
vn 0.000000 -1.000000 0.000000
vn 0.000000 -1.000000 0.000000
vn 0.000000 -1.000000 0.000000
vn 0.000000 -1.000000 0.000000
vn -0.805303 0.221272 -0.550023
vn -0.805303 0.221272 -0.550023
vn -0.805303 0.221272 -0.550023
vn -0.805303 0.221272 0.550023
vn -0.805303 0.221272 0.550023
vn -0.805303 0.221272 0.550023
vn 0.805303 0.221273 0.550023
vn 0.805303 0.221273 0.550023
vn 0.805303 0.221273 0.550023
vn 0.805303 0.221273 -0.550023
vn 0.805303 0.221273 -0.550023
vn 0.805303 0.221273 -0.550023
s off
g dragonTeeth:initialShadingGroup dragonTeeth:pasted__pPyramid2 dragonTeeth:polySurface9 initialShadingGroup polySurface2
f 1/1/1 4/2/2 2/3/3
f 2/3/4 4/2/5 3/4/6
f 1/5/7 2/6/8 5/7/9
f 2/6/10 3/8/11 5/7/12
f 3/8/13 4/9/14 5/7/15
f 4/9/16 1/10/17 5/7/18
g dragonTeeth:initialShadingGroup dragonTeeth:pasted__pPyramid2 dragonTeeth:polySurface10 initialShadingGroup polySurface2
f 6/11/19 9/12/20 7/13/21
f 7/13/22 9/12/23 8/14/24
f 6/15/25 7/16/26 10/17/27
f 7/16/28 8/18/29 10/17/30
f 8/18/31 9/19/32 10/17/33
f 9/19/34 6/20/35 10/17/36
g dragonTeeth:initialShadingGroup dragonTeeth:pasted__pPyramid2 dragonTeeth:polySurface13 initialShadingGroup polySurface2
f 11/21/37 14/22/38 12/23/39
f 12/23/40 14/22/41 13/24/42
f 11/25/43 12/26/44 15/27/45
f 12/26/46 13/28/47 15/27/48
f 13/28/49 14/29/50 15/27/51
f 14/29/52 11/30/53 15/27/54
g dragonTeeth:initialShadingGroup dragonTeeth:pasted__pPyramid2 dragonTeeth:polySurface15 initialShadingGroup polySurface2
f 16/31/55 19/32/56 17/33/57
f 17/33/58 19/32/59 18/34/60
f 16/35/61 17/36/62 20/37/63
f 17/36/64 18/38/65 20/37/66
f 18/38/67 19/39/68 20/37/69
f 19/39/70 16/40/71 20/37/72
g dragonTeeth:initialShadingGroup dragonTeeth:pasted__pPyramid2 dragonTeeth:polySurface16 initialShadingGroup polySurface2
f 21/41/73 24/42/74 22/43/75
f 22/43/76 24/42/77 23/44/78
f 21/45/79 22/46/80 25/47/81
f 22/46/82 23/48/83 25/47/84
f 23/48/85 24/49/86 25/47/87
f 24/49/88 21/50/89 25/47/90
g dragonTeeth:initialShadingGroup dragonTeeth:pasted__pPyramid2 dragonTeeth:polySurface19 initialShadingGroup polySurface2
f 26/51/91 29/52/92 27/53/93
f 27/53/94 29/52/95 28/54/96
f 26/55/97 27/56/98 30/57/99
f 27/56/100 28/58/101 30/57/102
f 28/58/103 29/59/104 30/57/105
f 29/59/106 26/60/107 30/57/108
g dragonTeeth:initialShadingGroup dragonTeeth:pasted__pPyramid2 dragonTeeth:polySurface20 initialShadingGroup polySurface2
f 31/61/109 34/62/110 32/63/111
f 32/63/112 34/62/113 33/64/114
f 31/65/115 32/66/116 35/67/117
f 32/66/118 33/68/119 35/67/120
f 33/68/121 34/69/122 35/67/123
f 34/69/124 31/70/125 35/67/126
g dragonTeeth:initialShadingGroup dragonTeeth:pasted__pPyramid2 dragonTeeth:polySurface23 initialShadingGroup polySurface2
f 36/71/127 39/72/128 37/73/129
f 37/73/130 39/72/131 38/74/132
f 36/75/133 37/76/134 40/77/135
f 37/76/136 38/78/137 40/77/138
f 38/78/139 39/79/140 40/77/141
f 39/79/142 36/80/143 40/77/144
g dragonTeeth:initialShadingGroup dragonTeeth:pasted__pPyramid2 dragonTeeth:polySurface25 initialShadingGroup polySurface2
f 41/81/145 44/82/146 42/83/147
f 42/83/148 44/82/149 43/84/150
f 41/85/151 42/86/152 45/87/153
f 42/86/154 43/88/155 45/87/156
f 43/88/157 44/89/158 45/87/159
f 44/89/160 41/90/161 45/87/162
g dragonTeeth:initialShadingGroup dragonTeeth:pasted__pPyramid2 dragonTeeth:polySurface26 initialShadingGroup polySurface2
f 46/91/163 49/92/164 47/93/165
f 47/93/166 49/92/167 48/94/168
f 46/95/169 47/96/170 50/97/171
f 47/96/172 48/98/173 50/97/174
f 48/98/175 49/99/176 50/97/177
f 49/99/178 46/100/179 50/97/180
g dragonTeeth:initialShadingGroup dragonTeeth:pasted__pPyramid2 dragonTeeth:polySurface33 initialShadingGroup polySurface2
f 51/101/181 54/102/182 52/103/183
f 52/103/184 54/102/185 53/104/186
f 51/105/187 52/106/188 55/107/189
f 52/106/190 53/108/191 55/107/192
f 53/108/193 54/109/194 55/107/195
f 54/109/196 51/110/197 55/107/198
g dragonTeeth:initialShadingGroup dragonTeeth:pasted__pPyramid2 dragonTeeth:polySurface34 initialShadingGroup polySurface2
f 56/111/199 59/112/200 57/113/201
f 57/113/202 59/112/203 58/114/204
f 56/115/205 57/116/206 60/117/207
f 57/116/208 58/118/209 60/117/210
f 58/118/211 59/119/212 60/117/213
f 59/119/214 56/120/215 60/117/216
g dragonTeeth:initialShadingGroup dragonTeeth:pasted__pPyramid2 dragonTeeth:polySurface35 initialShadingGroup polySurface2
f 61/121/217 64/122/218 62/123/219
f 62/123/220 64/122/221 63/124/222
f 61/125/223 62/126/224 65/127/225
f 62/126/226 63/128/227 65/127/228
f 63/128/229 64/129/230 65/127/231
f 64/129/232 61/130/233 65/127/234
g dragonTeeth:initialShadingGroup dragonTeeth:pasted__pPyramid2 dragonTeeth:polySurface36 initialShadingGroup polySurface2
f 66/131/235 69/132/236 67/133/237
f 67/133/238 69/132/239 68/134/240
f 66/135/241 67/136/242 70/137/243
f 67/136/244 68/138/245 70/137/246
f 68/138/247 69/139/248 70/137/249
f 69/139/250 66/140/251 70/137/252
g dragonTeeth:initialShadingGroup dragonTeeth:pasted__pPyramid2 dragonTeeth:polySurface37 initialShadingGroup polySurface2
f 71/141/253 74/142/254 72/143/255
f 72/143/256 74/142/257 73/144/258
f 71/145/259 72/146/260 75/147/261
f 72/146/262 73/148/263 75/147/264
f 73/148/265 74/149/266 75/147/267
f 74/149/268 71/150/269 75/147/270
g dragonTeeth:initialShadingGroup dragonTeeth:pasted__pPyramid2 dragonTeeth:polySurface38 initialShadingGroup polySurface2
f 76/151/271 79/152/272 77/153/273
f 77/153/274 79/152/275 78/154/276
f 76/155/277 77/156/278 80/157/279
f 77/156/280 78/158/281 80/157/282
f 78/158/283 79/159/284 80/157/285
f 79/159/286 76/160/287 80/157/288
g dragonTeeth:initialShadingGroup dragonTeeth:pasted__pPyramid2 dragonTeeth:polySurface39 initialShadingGroup polySurface2
f 81/161/289 84/162/290 82/163/291
f 82/163/292 84/162/293 83/164/294
f 81/165/295 82/166/296 85/167/297
f 82/166/298 83/168/299 85/167/300
f 83/168/301 84/169/302 85/167/303
f 84/169/304 81/170/305 85/167/306
