# This file uses centimeters as units for non-parametric coordinates.

mtllib dragonTailHorn.mtl
g default1
v -0.002874 0.351366 -0.025436
v -0.470081 0.446153 0.323701
v -0.002874 0.540941 0.672838
v 0.464333 0.446153 0.323701
v -0.002874 1.288078 0.137813
vt 0.500000 0.000000
vt 0.750000 0.250000
vt 0.250000 0.250000
vt 0.500000 0.500000
vt 0.250000 0.500000
vt 0.375000 0.500000
vt 0.500000 1.000000
vt 0.500000 0.500000
vt 0.625000 0.500000
vt 0.750000 0.500000
vn 0.000000 -0.965066 0.262007
vn 0.000000 -0.965066 0.262007
vn 0.000000 -0.965066 0.262007
vn 0.000000 -0.965066 0.262007
vn 0.000000 -0.965066 0.262007
vn 0.000000 -0.965066 0.262007
vn -0.574207 0.140566 -0.806553
vn -0.574207 0.140566 -0.806553
vn -0.574207 0.140566 -0.806553
vn -0.587333 0.471214 0.658025
vn -0.587333 0.471214 0.658025
vn -0.587333 0.471214 0.658025
vn 0.587333 0.471214 0.658025
vn 0.587333 0.471214 0.658025
vn 0.587333 0.471214 0.658025
vn 0.574207 0.140566 -0.806553
vn 0.574207 0.140566 -0.806553
vn 0.574207 0.140566 -0.806553
s off
g initialShadingGroup initialShadingGroup1 initialShadingGroup2 initialShadingGroup3 initialShadingGroup4 initialShadingGroup5 pPyramid2 polySurface2 polySurface5 polySurface6 polySurface9 polySurface10 polySurface13 polySurface14 polySurface17 polySurface1
f 1/1/1 4/2/2 2/3/3
f 2/3/4 4/2/5 3/4/6
f 1/5/7 2/6/8 5/7/9
f 2/6/10 3/8/11 5/7/12
f 3/8/13 4/9/14 5/7/15
f 4/9/16 1/10/17 5/7/18
g default1
v -0.000413 0.241805 -0.650166
v -0.388667 0.323565 -0.344247
v -0.000413 0.405326 -0.038328
v 0.387839 0.323565 -0.344247
v -0.000413 0.860797 -0.461014
vt 0.500000 0.000000
vt 0.750000 0.250000
vt 0.250000 0.250000
vt 0.500000 0.500000
vt 0.250000 0.500000
vt 0.375000 0.500000
vt 0.500000 1.000000
vt 0.500000 0.500000
vt 0.625000 0.500000
vt 0.750000 0.500000
vn 0.000000 -0.966092 0.258199
vn 0.000000 -0.966092 0.258199
vn 0.000000 -0.966092 0.258199
vn 0.000000 -0.966092 0.258199
vn 0.000000 -0.966092 0.258199
vn 0.000000 -0.966092 0.258199
vn -0.569038 0.240312 -0.786413
vn -0.569039 0.240311 -0.786413
vn -0.569039 0.240311 -0.786413
vn -0.584734 0.551823 0.594624
vn -0.584734 0.551823 0.594624
vn -0.584734 0.551823 0.594624
vn 0.584734 0.551822 0.594624
vn 0.584734 0.551822 0.594624
vn 0.584734 0.551822 0.594624
vn 0.569039 0.240311 -0.786413
vn 0.569039 0.240311 -0.786413
vn 0.569039 0.240311 -0.786413
s off
g initialShadingGroup initialShadingGroup1 initialShadingGroup2 initialShadingGroup3 initialShadingGroup4 initialShadingGroup5 pPyramid2 polySurface2 polySurface6 polySurface7 polySurface10 polySurface11 polySurface14 polySurface15 polySurface1 polySurface18
f 6/11/19 9/12/20 7/13/21
f 7/13/22 9/12/23 8/14/24
f 6/15/25 7/16/26 10/17/27
f 7/16/28 8/18/29 10/17/30
f 8/18/31 9/19/32 10/17/33
f 9/19/34 6/20/35 10/17/36
