# This file uses centimeters as units for non-parametric coordinates.

mtllib sphere.mtl
g default
v 0.292854 -0.951057 -0.085294
v 0.248961 -0.951057 -0.171438
v 0.180597 -0.951057 -0.239803
v 0.094452 -0.951057 -0.283695
v -0.001039 -0.951057 -0.298820
v -0.096531 -0.951057 -0.283695
v -0.182675 -0.951057 -0.239803
v -0.251039 -0.951057 -0.171438
v -0.294932 -0.951057 -0.085294
v -0.310056 -0.951057 0.010197
v -0.294932 -0.951057 0.105689
v -0.251039 -0.951057 0.191833
v -0.182675 -0.951057 0.260197
v -0.096531 -0.951057 0.304090
v -0.001039 -0.951057 0.319214
v 0.094452 -0.951057 0.304090
v 0.180597 -0.951057 0.260197
v 0.248961 -0.951057 0.191833
v 0.292854 -0.951057 0.105689
v 0.307978 -0.951057 0.010197
v 0.768382 -0.587785 -0.239803
v 0.653470 -0.587785 -0.465331
v 0.474489 -0.587785 -0.644311
v 0.248961 -0.587785 -0.759224
v -0.001039 -0.587785 -0.798820
v -0.251039 -0.587785 -0.759224
v -0.476568 -0.587785 -0.644311
v -0.655548 -0.587785 -0.465331
v -0.770460 -0.587785 -0.239803
v -0.810056 -0.587785 0.010197
v -0.770460 -0.587785 0.260197
v -0.655548 -0.587785 0.485726
v -0.476567 -0.587785 0.664706
v -0.251039 -0.587785 0.779618
v -0.001039 -0.587785 0.819215
v 0.248961 -0.587785 0.779618
v 0.474489 -0.587785 0.664706
v 0.653469 -0.587785 0.485726
v 0.768382 -0.587785 0.260197
v 0.807978 -0.587785 0.010197
v 0.950018 0.000000 -0.298820
v 0.807978 0.000000 -0.577588
v 0.586746 0.000000 -0.798820
v 0.307978 0.000000 -0.940860
v -0.001039 0.000000 -0.989803
v -0.310056 0.000000 -0.940860
v -0.588825 0.000000 -0.798820
v -0.810056 0.000000 -0.577588
v -0.952096 0.000000 -0.298820
v -1.001039 0.000000 0.010197
v -0.952096 0.000000 0.319214
v -0.810056 0.000000 0.597983
v -0.588824 0.000000 0.819215
v -0.310056 0.000000 0.961254
v -0.001039 0.000000 1.010198
v 0.307978 0.000000 0.961254
v 0.586746 0.000000 0.819214
v 0.807978 0.000000 0.597983
v 0.950017 0.000000 0.319214
v 0.998961 0.000000 0.010197
v 0.768382 0.587785 -0.239803
v 0.653470 0.587785 -0.465331
v 0.474489 0.587785 -0.644311
v 0.248961 0.587785 -0.759224
v -0.001039 0.587785 -0.798820
v -0.251039 0.587785 -0.759224
v -0.476568 0.587785 -0.644311
v -0.655548 0.587785 -0.465331
v -0.770460 0.587785 -0.239803
v -0.810056 0.587785 0.010197
v -0.770460 0.587785 0.260197
v -0.655548 0.587785 0.485726
v -0.476567 0.587785 0.664706
v -0.251039 0.587785 0.779618
v -0.001039 0.587785 0.819215
v 0.248961 0.587785 0.779618
v 0.474489 0.587785 0.664706
v 0.653469 0.587785 0.485726
v 0.768382 0.587785 0.260197
v 0.807978 0.587785 0.010197
v -0.001039 -1.000000 0.010197
v -0.001039 1.000000 0.010197
vt 0.000000 0.100000
vt 0.050000 0.100000
vt 0.100000 0.100000
vt 0.150000 0.100000
vt 0.200000 0.100000
vt 0.250000 0.100000
vt 0.300000 0.100000
vt 0.350000 0.100000
vt 0.400000 0.100000
vt 0.450000 0.100000
vt 0.500000 0.100000
vt 0.550000 0.100000
vt 0.600000 0.100000
vt 0.650000 0.100000
vt 0.700000 0.100000
vt 0.750000 0.100000
vt 0.800000 0.100000
vt 0.850000 0.100000
vt 0.900000 0.100000
vt 0.950000 0.100000
vt 1.000000 0.100000
vt 0.000000 0.300000
vt 0.050000 0.300000
vt 0.100000 0.300000
vt 0.150000 0.300000
vt 0.200000 0.300000
vt 0.250000 0.300000
vt 0.300000 0.300000
vt 0.350000 0.300000
vt 0.400000 0.300000
vt 0.450000 0.300000
vt 0.500000 0.300000
vt 0.550000 0.300000
vt 0.600000 0.300000
vt 0.650000 0.300000
vt 0.700000 0.300000
vt 0.750000 0.300000
vt 0.800000 0.300000
vt 0.850000 0.300000
vt 0.900000 0.300000
vt 0.950000 0.300000
vt 1.000000 0.300000
vt 0.000000 0.500000
vt 0.050000 0.500000
vt 0.100000 0.500000
vt 0.150000 0.500000
vt 0.200000 0.500000
vt 0.250000 0.500000
vt 0.300000 0.500000
vt 0.350000 0.500000
vt 0.400000 0.500000
vt 0.450000 0.500000
vt 0.500000 0.500000
vt 0.550000 0.500000
vt 0.600000 0.500000
vt 0.650000 0.500000
vt 0.700000 0.500000
vt 0.750000 0.500000
vt 0.800000 0.500000
vt 0.850000 0.500000
vt 0.900000 0.500000
vt 0.950000 0.500000
vt 1.000000 0.500000
vt 0.000000 0.700000
vt 0.050000 0.700000
vt 0.100000 0.700000
vt 0.150000 0.700000
vt 0.200000 0.700000
vt 0.250000 0.700000
vt 0.300000 0.700000
vt 0.350000 0.700000
vt 0.400000 0.700000
vt 0.450000 0.700000
vt 0.500000 0.700000
vt 0.550000 0.700000
vt 0.600000 0.700000
vt 0.650000 0.700000
vt 0.700000 0.700000
vt 0.750000 0.700000
vt 0.800000 0.700000
vt 0.850000 0.700000
vt 0.900000 0.700000
vt 0.950000 0.700000
vt 1.000000 0.700000
vt 0.025000 0.000000
vt 0.075000 0.000000
vt 0.125000 0.000000
vt 0.175000 0.000000
vt 0.225000 0.000000
vt 0.275000 0.000000
vt 0.325000 0.000000
vt 0.375000 0.000000
vt 0.425000 0.000000
vt 0.475000 0.000000
vt 0.525000 0.000000
vt 0.575000 0.000000
vt 0.625000 0.000000
vt 0.675000 0.000000
vt 0.725000 0.000000
vt 0.775000 0.000000
vt 0.825000 0.000000
vt 0.875000 0.000000
vt 0.925000 0.000000
vt 0.975000 0.000000
vt 0.025000 1.000000
vt 0.075000 1.000000
vt 0.125000 1.000000
vt 0.175000 1.000000
vt 0.225000 1.000000
vt 0.275000 1.000000
vt 0.325000 1.000000
vt 0.375000 1.000000
vt 0.425000 1.000000
vt 0.475000 1.000000
vt 0.525000 1.000000
vt 0.575000 1.000000
vt 0.625000 1.000000
vt 0.675000 1.000000
vt 0.725000 1.000000
vt 0.775000 1.000000
vt 0.825000 1.000000
vt 0.875000 1.000000
vt 0.925000 1.000000
vt 0.975000 1.000000
vn 0.521499 -0.836258 -0.169445
vn 0.443613 -0.836258 -0.322304
vn 0.696149 -0.509471 -0.505782
vn 0.818373 -0.509471 -0.265904
vn 0.322304 -0.836258 -0.443614
vn 0.505782 -0.509471 -0.696149
vn 0.169445 -0.836258 -0.521499
vn 0.265905 -0.509471 -0.818372
vn -0.000000 -0.836258 -0.548336
vn -0.000000 -0.509471 -0.860488
vn -0.169445 -0.836258 -0.521499
vn -0.265906 -0.509471 -0.818372
vn -0.322304 -0.836258 -0.443613
vn -0.505782 -0.509471 -0.696149
vn -0.443614 -0.836258 -0.322304
vn -0.696149 -0.509471 -0.505782
vn -0.521499 -0.836258 -0.169445
vn -0.818373 -0.509471 -0.265905
vn -0.548337 -0.836258 0.000000
vn -0.860488 -0.509471 0.000000
vn -0.521499 -0.836258 0.169445
vn -0.818372 -0.509471 0.265905
vn -0.443614 -0.836258 0.322304
vn -0.696149 -0.509471 0.505782
vn -0.322304 -0.836258 0.443614
vn -0.505782 -0.509471 0.696149
vn -0.169445 -0.836258 0.521499
vn -0.265905 -0.509471 0.818372
vn 0.000000 -0.836258 0.548337
vn 0.000000 -0.509471 0.860488
vn 0.169445 -0.836258 0.521499
vn 0.265905 -0.509471 0.818372
vn 0.322304 -0.836258 0.443614
vn 0.505782 -0.509471 0.696149
vn 0.443614 -0.836258 0.322304
vn 0.696149 -0.509471 0.505782
vn 0.521499 -0.836258 0.169445
vn 0.818373 -0.509471 0.265905
vn 0.548337 -0.836258 0.000000
vn 0.860488 -0.509471 0.000001
vn 0.809017 -0.000000 -0.587785
vn 0.951057 0.000000 -0.309016
vn 0.587785 0.000000 -0.809017
vn 0.309017 0.000000 -0.951057
vn 0.000000 -0.000000 -1.000000
vn -0.309017 0.000000 -0.951056
vn -0.587785 0.000000 -0.809017
vn -0.809017 0.000000 -0.587785
vn -0.951057 0.000000 -0.309017
vn -1.000000 -0.000000 0.000000
vn -0.951057 -0.000000 0.309017
vn -0.809017 -0.000000 0.587785
vn -0.587785 0.000000 0.809017
vn -0.309017 -0.000000 0.951057
vn -0.000000 0.000000 1.000000
vn 0.309017 0.000000 0.951057
vn 0.587785 0.000000 0.809017
vn 0.809017 0.000000 0.587785
vn 0.951057 0.000000 0.309017
vn 1.000000 0.000000 0.000001
vn 0.668893 0.562501 -0.485979
vn 0.786331 0.562501 -0.255494
vn 0.485979 0.562501 -0.668893
vn 0.255494 0.562501 -0.786331
vn -0.000000 0.562501 -0.826797
vn -0.255495 0.562501 -0.786331
vn -0.485979 0.562501 -0.668893
vn -0.668893 0.562501 -0.485979
vn -0.786331 0.562501 -0.255494
vn -0.826797 0.562500 0.000000
vn -0.786331 0.562500 0.255494
vn -0.668893 0.562501 0.485979
vn -0.485979 0.562501 0.668893
vn -0.255494 0.562501 0.786331
vn -0.000000 0.562500 0.826797
vn 0.255494 0.562500 0.786331
vn 0.485979 0.562500 0.668893
vn 0.668893 0.562501 0.485979
vn 0.786331 0.562500 0.255494
vn 0.826797 0.562501 0.000001
vn -0.000000 -1.000000 0.000000
vn 0.000000 1.000000 -0.000000
s 1
g initialShadingGroup pSphere1
f 1/1/1 2/2/2 22/23/3 21/22/4
f 2/2/2 3/3/5 23/24/6 22/23/3
f 3/3/5 4/4/7 24/25/8 23/24/6
f 4/4/7 5/5/9 25/26/10 24/25/8
f 5/5/9 6/6/11 26/27/12 25/26/10
f 6/6/11 7/7/13 27/28/14 26/27/12
f 7/7/13 8/8/15 28/29/16 27/28/14
f 8/8/15 9/9/17 29/30/18 28/29/16
f 9/9/17 10/10/19 30/31/20 29/30/18
f 10/10/19 11/11/21 31/32/22 30/31/20
f 11/11/21 12/12/23 32/33/24 31/32/22
f 12/12/23 13/13/25 33/34/26 32/33/24
f 13/13/25 14/14/27 34/35/28 33/34/26
f 14/14/27 15/15/29 35/36/30 34/35/28
f 15/15/29 16/16/31 36/37/32 35/36/30
f 16/16/31 17/17/33 37/38/34 36/37/32
f 17/17/33 18/18/35 38/39/36 37/38/34
f 18/18/35 19/19/37 39/40/38 38/39/36
f 19/19/37 20/20/39 40/41/40 39/40/38
f 20/20/39 1/21/1 21/42/4 40/41/40
f 21/22/4 22/23/3 42/44/41 41/43/42
f 22/23/3 23/24/6 43/45/43 42/44/41
f 23/24/6 24/25/8 44/46/44 43/45/43
f 24/25/8 25/26/10 45/47/45 44/46/44
f 25/26/10 26/27/12 46/48/46 45/47/45
f 26/27/12 27/28/14 47/49/47 46/48/46
f 27/28/14 28/29/16 48/50/48 47/49/47
f 28/29/16 29/30/18 49/51/49 48/50/48
f 29/30/18 30/31/20 50/52/50 49/51/49
f 30/31/20 31/32/22 51/53/51 50/52/50
f 31/32/22 32/33/24 52/54/52 51/53/51
f 32/33/24 33/34/26 53/55/53 52/54/52
f 33/34/26 34/35/28 54/56/54 53/55/53
f 34/35/28 35/36/30 55/57/55 54/56/54
f 35/36/30 36/37/32 56/58/56 55/57/55
f 36/37/32 37/38/34 57/59/57 56/58/56
f 37/38/34 38/39/36 58/60/58 57/59/57
f 38/39/36 39/40/38 59/61/59 58/60/58
f 39/40/38 40/41/40 60/62/60 59/61/59
f 40/41/40 21/42/4 41/63/42 60/62/60
f 41/43/42 42/44/41 62/65/61 61/64/62
f 42/44/41 43/45/43 63/66/63 62/65/61
f 43/45/43 44/46/44 64/67/64 63/66/63
f 44/46/44 45/47/45 65/68/65 64/67/64
f 45/47/45 46/48/46 66/69/66 65/68/65
f 46/48/46 47/49/47 67/70/67 66/69/66
f 47/49/47 48/50/48 68/71/68 67/70/67
f 48/50/48 49/51/49 69/72/69 68/71/68
f 49/51/49 50/52/50 70/73/70 69/72/69
f 50/52/50 51/53/51 71/74/71 70/73/70
f 51/53/51 52/54/52 72/75/72 71/74/71
f 52/54/52 53/55/53 73/76/73 72/75/72
f 53/55/53 54/56/54 74/77/74 73/76/73
f 54/56/54 55/57/55 75/78/75 74/77/74
f 55/57/55 56/58/56 76/79/76 75/78/75
f 56/58/56 57/59/57 77/80/77 76/79/76
f 57/59/57 58/60/58 78/81/78 77/80/77
f 58/60/58 59/61/59 79/82/79 78/81/78
f 59/61/59 60/62/60 80/83/80 79/82/79
f 60/62/60 41/63/42 61/84/62 80/83/80
f 2/2/2 1/1/1 81/85/81
f 3/3/5 2/2/2 81/86/81
f 4/4/7 3/3/5 81/87/81
f 5/5/9 4/4/7 81/88/81
f 6/6/11 5/5/9 81/89/81
f 7/7/13 6/6/11 81/90/81
f 8/8/15 7/7/13 81/91/81
f 9/9/17 8/8/15 81/92/81
f 10/10/19 9/9/17 81/93/81
f 11/11/21 10/10/19 81/94/81
f 12/12/23 11/11/21 81/95/81
f 13/13/25 12/12/23 81/96/81
f 14/14/27 13/13/25 81/97/81
f 15/15/29 14/14/27 81/98/81
f 16/16/31 15/15/29 81/99/81
f 17/17/33 16/16/31 81/100/81
f 18/18/35 17/17/33 81/101/81
f 19/19/37 18/18/35 81/102/81
f 20/20/39 19/19/37 81/103/81
f 1/21/1 20/20/39 81/104/81
f 61/64/62 62/65/61 82/105/82
f 62/65/61 63/66/63 82/106/82
f 63/66/63 64/67/64 82/107/82
f 64/67/64 65/68/65 82/108/82
f 65/68/65 66/69/66 82/109/82
f 66/69/66 67/70/67 82/110/82
f 67/70/67 68/71/68 82/111/82
f 68/71/68 69/72/69 82/112/82
f 69/72/69 70/73/70 82/113/82
f 70/73/70 71/74/71 82/114/82
f 71/74/71 72/75/72 82/115/82
f 72/75/72 73/76/73 82/116/82
f 73/76/73 74/77/74 82/117/82
f 74/77/74 75/78/75 82/118/82
f 75/78/75 76/79/76 82/119/82
f 76/79/76 77/80/77 82/120/82
f 77/80/77 78/81/78 82/121/82
f 78/81/78 79/82/79 82/122/82
f 79/82/79 80/83/80 82/123/82
f 80/83/80 61/84/62 82/124/82
