# This file uses centimeters as units for non-parametric coordinates.

mtllib cnmHead2.mtl
g default
v -0.636794 2.435534 1.016830
v -0.636794 2.435534 2.005732
v -0.636794 6.435534 1.016830
v -0.636794 6.435534 2.005732
v 0.636794 6.435534 1.016830
v 0.636794 6.435534 2.005732
v 0.636794 2.435534 1.016830
v 0.636794 2.435534 2.005732
v 0.583484 5.858745 1.795258
v 0.000000 6.442229 1.795258
v -0.583484 5.858745 1.795258
v 0.000000 5.275261 1.795258
v 0.000000 5.858745 3.545709
v 0.353553 6.416168 1.681866
v 0.000000 6.416168 1.328312
v -0.353553 6.416168 1.681866
v 0.000000 6.416168 2.035419
v 0.000000 6.981853 1.681866
v 0.353553 6.345982 1.350430
v 0.000000 6.174394 1.041306
v -0.353553 6.345982 1.350430
v 0.000000 6.517570 1.659554
v 0.000000 6.840580 1.075889
v 0.353553 6.155460 1.140696
v 0.000000 5.813063 1.052582
v -0.353553 6.155460 1.140696
v 0.000000 6.497858 1.228809
v 0.000000 6.296442 0.592860
v -0.636794 2.435534 1.016830
v -0.636794 2.435534 2.005732
v -0.636794 6.435534 1.016830
v -0.636794 6.435534 2.005732
v 0.636794 6.435534 1.016830
v 0.636794 6.435534 2.005732
v 0.636794 2.435534 1.016830
v 0.636794 2.435534 2.005732
v 0.583484 5.858745 1.795258
v 0.000000 6.442229 1.795258
v -0.583484 5.858745 1.795258
v 0.000000 5.275261 1.795258
v 0.000000 5.858745 3.545709
v 0.353553 6.416168 1.681866
v 0.000000 6.416168 1.328312
v -0.353553 6.416168 1.681866
v 0.000000 6.416168 2.035419
v 0.000000 6.981853 1.681866
v 0.353553 6.345982 1.350430
v 0.000000 6.174394 1.041306
v -0.353553 6.345982 1.350430
v 0.000000 6.517570 1.659554
v 0.000000 6.840580 1.075889
v 0.353553 6.155460 1.140696
v 0.000000 5.813063 1.052582
v -0.353553 6.155460 1.140696
v 0.000000 6.497858 1.228809
v 0.000000 6.296442 0.592860
vt 0.375000 0.000000
vt 0.625000 0.000000
vt 0.375000 0.250000
vt 0.625000 0.250000
vt 0.375000 0.500000
vt 0.625000 0.500000
vt 0.375000 0.750000
vt 0.625000 0.750000
vt 0.375000 1.000000
vt 0.625000 1.000000
vt 0.875000 0.000000
vt 0.875000 0.250000
vt 0.125000 0.000000
vt 0.125000 0.250000
vt 0.500000 0.000000
vt 0.750000 0.250000
vt 0.250000 0.250000
vt 0.500000 0.500000
vt 0.250000 0.500000
vt 0.375000 0.500000
vt 0.500000 1.000000
vt 0.500000 0.500000
vt 0.625000 0.500000
vt 0.750000 0.500000
vt 0.500000 0.000000
vt 0.750000 0.250000
vt 0.250000 0.250000
vt 0.500000 0.500000
vt 0.250000 0.500000
vt 0.375000 0.500000
vt 0.500000 1.000000
vt 0.500000 0.500000
vt 0.625000 0.500000
vt 0.750000 0.500000
vt 0.500000 0.000000
vt 0.750000 0.250000
vt 0.250000 0.250000
vt 0.500000 0.500000
vt 0.250000 0.500000
vt 0.375000 0.500000
vt 0.500000 1.000000
vt 0.500000 0.500000
vt 0.625000 0.500000
vt 0.750000 0.500000
vt 0.500000 0.000000
vt 0.750000 0.250000
vt 0.250000 0.250000
vt 0.500000 0.500000
vt 0.250000 0.500000
vt 0.375000 0.500000
vt 0.500000 1.000000
vt 0.500000 0.500000
vt 0.625000 0.500000
vt 0.750000 0.500000
vt 0.375000 0.000000
vt 0.625000 0.000000
vt 0.375000 0.250000
vt 0.625000 0.250000
vt 0.375000 0.500000
vt 0.625000 0.500000
vt 0.375000 0.750000
vt 0.625000 0.750000
vt 0.375000 1.000000
vt 0.625000 1.000000
vt 0.875000 0.000000
vt 0.875000 0.250000
vt 0.125000 0.000000
vt 0.125000 0.250000
vt 0.500000 0.000000
vt 0.750000 0.250000
vt 0.250000 0.250000
vt 0.500000 0.500000
vt 0.250000 0.500000
vt 0.375000 0.500000
vt 0.500000 1.000000
vt 0.500000 0.500000
vt 0.625000 0.500000
vt 0.750000 0.500000
vt 0.500000 0.000000
vt 0.750000 0.250000
vt 0.250000 0.250000
vt 0.500000 0.500000
vt 0.250000 0.500000
vt 0.375000 0.500000
vt 0.500000 1.000000
vt 0.500000 0.500000
vt 0.625000 0.500000
vt 0.750000 0.500000
vt 0.500000 0.000000
vt 0.750000 0.250000
vt 0.250000 0.250000
vt 0.500000 0.500000
vt 0.250000 0.500000
vt 0.375000 0.500000
vt 0.500000 1.000000
vt 0.500000 0.500000
vt 0.625000 0.500000
vt 0.750000 0.500000
vt 0.500000 0.000000
vt 0.750000 0.250000
vt 0.250000 0.250000
vt 0.500000 0.500000
vt 0.250000 0.500000
vt 0.375000 0.500000
vt 0.500000 1.000000
vt 0.500000 0.500000
vt 0.625000 0.500000
vt 0.750000 0.500000
vn -1.000000 0.000000 0.000000
vn -1.000000 0.000000 0.000000
vn -1.000000 0.000000 0.000000
vn -1.000000 0.000000 0.000000
vn -1.000000 0.000000 0.000000
vn -1.000000 0.000000 0.000000
vn 0.000000 1.000000 0.000000
vn 0.000000 1.000000 0.000000
vn 0.000000 1.000000 0.000000
vn 0.000000 1.000000 0.000000
vn 0.000000 1.000000 0.000000
vn 0.000000 1.000000 0.000000
vn 1.000000 0.000000 -0.000000
vn 1.000000 0.000000 -0.000000
vn 1.000000 0.000000 -0.000000
vn 1.000000 0.000000 -0.000000
vn 1.000000 0.000000 -0.000000
vn 1.000000 0.000000 -0.000000
vn 0.000000 -1.000000 0.000000
vn 0.000000 -1.000000 0.000000
vn 0.000000 -1.000000 0.000000
vn 0.000000 -1.000000 0.000000
vn 0.000000 -1.000000 0.000000
vn 0.000000 -1.000000 0.000000
vn 0.000000 0.000000 1.000000
vn 0.000000 0.000000 1.000000
vn 0.000000 0.000000 1.000000
vn 0.000000 0.000000 1.000000
vn 0.000000 0.000000 1.000000
vn 0.000000 0.000000 1.000000
vn -0.000000 0.000000 -1.000000
vn -0.000000 0.000000 -1.000000
vn -0.000000 0.000000 -1.000000
vn -0.000000 0.000000 -1.000000
vn -0.000000 0.000000 -1.000000
vn -0.000000 0.000000 -1.000000
vn -0.000000 0.000000 -1.000000
vn -0.000000 0.000000 -1.000000
vn -0.000000 0.000000 -1.000000
vn -0.000000 0.000000 -1.000000
vn -0.000000 0.000000 -1.000000
vn -0.000000 0.000000 -1.000000
vn 0.688248 0.688247 0.229416
vn 0.688248 0.688247 0.229416
vn 0.688248 0.688247 0.229416
vn -0.688248 0.688247 0.229416
vn -0.688248 0.688247 0.229416
vn -0.688248 0.688247 0.229416
vn -0.688247 -0.688248 0.229416
vn -0.688247 -0.688248 0.229416
vn -0.688247 -0.688248 0.229416
vn 0.688247 -0.688248 0.229416
vn 0.688247 -0.688248 0.229416
vn 0.688247 -0.688248 0.229416
vn 0.000000 -1.000000 0.000000
vn 0.000000 -1.000000 0.000000
vn 0.000000 -1.000000 0.000000
vn 0.000000 -1.000000 0.000000
vn 0.000000 -1.000000 0.000000
vn 0.000000 -1.000000 0.000000
vn 0.646762 0.404226 -0.646761
vn 0.646762 0.404226 -0.646761
vn 0.646762 0.404226 -0.646761
vn -0.646762 0.404226 -0.646761
vn -0.646762 0.404226 -0.646761
vn -0.646762 0.404226 -0.646761
vn -0.646762 0.404226 0.646761
vn -0.646762 0.404226 0.646761
vn -0.646762 0.404226 0.646761
vn 0.646762 0.404226 0.646761
vn 0.646762 0.404226 0.646761
vn 0.646762 0.404226 0.646761
vn 0.000000 -0.874334 0.485324
vn 0.000000 -0.874334 0.485324
vn 0.000000 -0.874334 0.485324
vn 0.000000 -0.874334 0.485324
vn 0.000000 -0.874334 0.485324
vn 0.000000 -0.874334 0.485324
vn 0.646762 0.039540 -0.761667
vn 0.646762 0.039540 -0.761667
vn 0.646762 0.039540 -0.761667
vn -0.646762 0.039540 -0.761667
vn -0.646762 0.039540 -0.761667
vn -0.646762 0.039540 -0.761667
vn -0.646762 0.667317 0.369306
vn -0.646762 0.667318 0.369306
vn -0.646762 0.667317 0.369306
vn 0.646762 0.667317 0.369305
vn 0.646762 0.667317 0.369305
vn 0.646762 0.667317 0.369305
vn 0.000000 -0.249223 0.968446
vn 0.000000 -0.249223 0.968446
vn 0.000000 -0.249223 0.968446
vn 0.000000 -0.249223 0.968446
vn 0.000000 -0.249223 0.968446
vn 0.000000 -0.249223 0.968446
vn 0.646763 -0.525611 -0.552658
vn 0.646763 -0.525611 -0.552658
vn 0.646763 -0.525611 -0.552658
vn -0.646762 -0.525611 -0.552659
vn -0.646762 -0.525611 -0.552659
vn -0.646762 -0.525611 -0.552659
vn -0.646762 0.727096 -0.230283
vn -0.646762 0.727096 -0.230283
vn -0.646762 0.727096 -0.230283
vn 0.646762 0.727096 -0.230283
vn 0.646762 0.727096 -0.230283
vn 0.646762 0.727096 -0.230283
vn -1.000000 0.000000 0.000000
vn -1.000000 0.000000 0.000000
vn -1.000000 0.000000 0.000000
vn -1.000000 0.000000 0.000000
vn -1.000000 0.000000 0.000000
vn -1.000000 0.000000 0.000000
vn 0.000000 1.000000 0.000000
vn 0.000000 1.000000 0.000000
vn 0.000000 1.000000 0.000000
vn 0.000000 1.000000 0.000000
vn 0.000000 1.000000 0.000000
vn 0.000000 1.000000 0.000000
vn 1.000000 0.000000 -0.000000
vn 1.000000 0.000000 -0.000000
vn 1.000000 0.000000 -0.000000
vn 1.000000 0.000000 -0.000000
vn 1.000000 0.000000 -0.000000
vn 1.000000 0.000000 -0.000000
vn 0.000000 -1.000000 0.000000
vn 0.000000 -1.000000 0.000000
vn 0.000000 -1.000000 0.000000
vn 0.000000 -1.000000 0.000000
vn 0.000000 -1.000000 0.000000
vn 0.000000 -1.000000 0.000000
vn 0.000000 0.000000 1.000000
vn 0.000000 0.000000 1.000000
vn 0.000000 0.000000 1.000000
vn 0.000000 0.000000 1.000000
vn 0.000000 0.000000 1.000000
vn 0.000000 0.000000 1.000000
vn -0.000000 0.000000 -1.000000
vn -0.000000 0.000000 -1.000000
vn -0.000000 0.000000 -1.000000
vn -0.000000 0.000000 -1.000000
vn -0.000000 0.000000 -1.000000
vn -0.000000 0.000000 -1.000000
vn -0.000000 0.000000 -1.000000
vn -0.000000 0.000000 -1.000000
vn -0.000000 0.000000 -1.000000
vn -0.000000 0.000000 -1.000000
vn -0.000000 0.000000 -1.000000
vn -0.000000 0.000000 -1.000000
vn 0.688248 0.688247 0.229416
vn 0.688248 0.688247 0.229416
vn 0.688248 0.688247 0.229416
vn -0.688248 0.688247 0.229416
vn -0.688248 0.688247 0.229416
vn -0.688248 0.688247 0.229416
vn -0.688247 -0.688248 0.229416
vn -0.688247 -0.688248 0.229416
vn -0.688247 -0.688248 0.229416
vn 0.688247 -0.688248 0.229416
vn 0.688247 -0.688248 0.229416
vn 0.688247 -0.688248 0.229416
vn 0.000000 -1.000000 0.000000
vn 0.000000 -1.000000 0.000000
vn 0.000000 -1.000000 0.000000
vn 0.000000 -1.000000 0.000000
vn 0.000000 -1.000000 0.000000
vn 0.000000 -1.000000 0.000000
vn 0.646762 0.404226 -0.646761
vn 0.646762 0.404226 -0.646761
vn 0.646762 0.404226 -0.646761
vn -0.646762 0.404226 -0.646761
vn -0.646762 0.404226 -0.646761
vn -0.646762 0.404226 -0.646761
vn -0.646762 0.404226 0.646761
vn -0.646762 0.404226 0.646761
vn -0.646762 0.404226 0.646761
vn 0.646762 0.404226 0.646761
vn 0.646762 0.404226 0.646761
vn 0.646762 0.404226 0.646761
vn 0.000000 -0.874334 0.485324
vn 0.000000 -0.874334 0.485324
vn 0.000000 -0.874334 0.485324
vn 0.000000 -0.874334 0.485324
vn 0.000000 -0.874334 0.485324
vn 0.000000 -0.874334 0.485324
vn 0.646762 0.039540 -0.761667
vn 0.646762 0.039540 -0.761667
vn 0.646762 0.039540 -0.761667
vn -0.646762 0.039540 -0.761667
vn -0.646762 0.039540 -0.761667
vn -0.646762 0.039540 -0.761667
vn -0.646762 0.667317 0.369306
vn -0.646762 0.667318 0.369306
vn -0.646762 0.667317 0.369306
vn 0.646762 0.667317 0.369305
vn 0.646762 0.667317 0.369305
vn 0.646762 0.667317 0.369305
vn 0.000000 -0.249223 0.968446
vn 0.000000 -0.249223 0.968446
vn 0.000000 -0.249223 0.968446
vn 0.000000 -0.249223 0.968446
vn 0.000000 -0.249223 0.968446
vn 0.000000 -0.249223 0.968446
vn 0.646763 -0.525611 -0.552658
vn 0.646763 -0.525611 -0.552658
vn 0.646763 -0.525611 -0.552658
vn -0.646762 -0.525611 -0.552659
vn -0.646762 -0.525611 -0.552659
vn -0.646762 -0.525611 -0.552659
vn -0.646762 0.727096 -0.230283
vn -0.646762 0.727096 -0.230283
vn -0.646762 0.727096 -0.230283
vn 0.646762 0.727096 -0.230283
vn 0.646762 0.727096 -0.230283
vn 0.646762 0.727096 -0.230283
s off
g initialShadingGroup pCube9
f 1/1/1 2/2/2 3/3/3
f 3/3/4 2/2/5 4/4/6
f 3/3/7 4/4/8 5/5/9
f 5/5/10 4/4/11 6/6/12
f 5/5/13 6/6/14 7/7/15
f 7/7/16 6/6/17 8/8/18
f 7/7/19 8/8/20 1/9/21
f 1/9/22 8/8/23 2/10/24
f 2/2/25 8/11/26 4/4/27
f 4/4/28 8/11/29 6/12/30
f 7/13/31 1/1/32 5/14/33
f 5/14/34 1/1/35 3/3/36
f 9/15/37 12/16/38 10/17/39
f 10/17/40 12/16/41 11/18/42
f 9/19/43 10/20/44 13/21/45
f 10/20/46 11/22/47 13/21/48
f 11/22/49 12/23/50 13/21/51
f 12/23/52 9/24/53 13/21/54
f 14/25/55 17/26/56 15/27/57
f 15/27/58 17/26/59 16/28/60
f 14/29/61 15/30/62 18/31/63
f 15/30/64 16/32/65 18/31/66
f 16/32/67 17/33/68 18/31/69
f 17/33/70 14/34/71 18/31/72
f 19/35/73 22/36/74 20/37/75
f 20/37/76 22/36/77 21/38/78
f 19/39/79 20/40/80 23/41/81
f 20/40/82 21/42/83 23/41/84
f 21/42/85 22/43/86 23/41/87
f 22/43/88 19/44/89 23/41/90
f 24/45/91 27/46/92 25/47/93
f 25/47/94 27/46/95 26/48/96
f 24/49/97 25/50/98 28/51/99
f 25/50/100 26/52/101 28/51/102
f 26/52/103 27/53/104 28/51/105
f 27/53/106 24/54/107 28/51/108
f 29/55/109 30/56/110 31/57/111
f 31/57/112 30/56/113 32/58/114
f 31/57/115 32/58/116 33/59/117
f 33/59/118 32/58/119 34/60/120
f 33/59/121 34/60/122 35/61/123
f 35/61/124 34/60/125 36/62/126
f 35/61/127 36/62/128 29/63/129
f 29/63/130 36/62/131 30/64/132
f 30/56/133 36/65/134 32/58/135
f 32/58/136 36/65/137 34/66/138
f 35/67/139 29/55/140 33/68/141
f 33/68/142 29/55/143 31/57/144
f 37/69/145 40/70/146 38/71/147
f 38/71/148 40/70/149 39/72/150
f 37/73/151 38/74/152 41/75/153
f 38/74/154 39/76/155 41/75/156
f 39/76/157 40/77/158 41/75/159
f 40/77/160 37/78/161 41/75/162
f 42/79/163 45/80/164 43/81/165
f 43/81/166 45/80/167 44/82/168
f 42/83/169 43/84/170 46/85/171
f 43/84/172 44/86/173 46/85/174
f 44/86/175 45/87/176 46/85/177
f 45/87/178 42/88/179 46/85/180
f 47/89/181 50/90/182 48/91/183
f 48/91/184 50/90/185 49/92/186
f 47/93/187 48/94/188 51/95/189
f 48/94/190 49/96/191 51/95/192
f 49/96/193 50/97/194 51/95/195
f 50/97/196 47/98/197 51/95/198
f 52/99/199 55/100/200 53/101/201
f 53/101/202 55/100/203 54/102/204
f 52/103/205 53/104/206 56/105/207
f 53/104/208 54/106/209 56/105/210
f 54/106/211 55/107/212 56/105/213
f 55/107/214 52/108/215 56/105/216
