# This file uses centimeters as units for non-parametric coordinates.

mtllib collisioncube.mtl
g default1
v -2.067407 -2.106919 2.067407
v 2.067407 -2.106919 2.067407
v -2.067407 2.027895 2.067407
v 2.067407 2.027895 2.067407
v -2.067407 2.027895 -2.067407
v 2.067407 2.027895 -2.067407
v -2.067407 -2.106919 -2.067407
v 2.067407 -2.106919 -2.067407
vt 1.002400 -0.003280
vt 1.002656 -0.002997
vt 0.003599 -0.001456
vt 0.005881 1.001281
vt 0.005131 -0.001817
vt 1.001124 1.001905
vt 0.005131 -0.001565
vt 1.002656 1.001543
vt 0.005131 1.001795
vt 1.002656 1.001795
vt 1.003405 -0.002079
vt 1.003405 1.001281
vt 0.004875 -0.003280
vt 0.004875 1.000080
vt 0.005131 -0.002997
vt 0.005131 1.001795
vt 1.002400 -0.003280
vt 0.003599 1.001905
vt 0.003599 1.001905
vt 0.004875 1.000080
vt 1.002656 -0.001565
vt 1.002656 -0.001565
vt 1.003405 -0.002079
vt 1.002656 1.000363
vt 1.001124 -0.001456
vt 1.001124 -0.001456
vt 0.005881 1.001281
vt 1.002656 -0.002997
vt 0.005881 -0.002079
vt 0.005131 1.001543
vt 0.005131 1.001543
vt 1.002656 -0.001817
vt 1.002656 -0.001817
vt 0.005131 1.000363
vt 0.005131 1.000363
vt 1.002400 1.000080
vn 0.000000 0.000000 1.000000
vn 0.000000 0.000000 1.000000
vn 0.000000 0.000000 1.000000
vn 0.000000 0.000000 1.000000
vn 0.000000 0.000000 1.000000
vn 0.000000 0.000000 1.000000
vn 0.000000 1.000000 0.000000
vn 0.000000 1.000000 0.000000
vn 0.000000 1.000000 0.000000
vn 0.000000 1.000000 0.000000
vn 0.000000 1.000000 0.000000
vn 0.000000 1.000000 0.000000
vn 0.000000 0.000000 -1.000000
vn 0.000000 0.000000 -1.000000
vn 0.000000 0.000000 -1.000000
vn 0.000000 0.000000 -1.000000
vn 0.000000 0.000000 -1.000000
vn 0.000000 0.000000 -1.000000
vn 0.000000 -1.000000 0.000000
vn 0.000000 -1.000000 0.000000
vn 0.000000 -1.000000 0.000000
vn 0.000000 -1.000000 0.000000
vn 0.000000 -1.000000 0.000000
vn 0.000000 -1.000000 0.000000
vn 1.000000 0.000000 0.000000
vn 1.000000 0.000000 0.000000
vn 1.000000 0.000000 0.000000
vn 1.000000 0.000000 0.000000
vn 1.000000 0.000000 0.000000
vn 1.000000 0.000000 0.000000
vn -1.000000 0.000000 0.000000
vn -1.000000 0.000000 0.000000
vn -1.000000 0.000000 0.000000
vn -1.000000 0.000000 0.000000
vn -1.000000 0.000000 0.000000
vn -1.000000 0.000000 0.000000
s off
g initialShadingGroup initialShadingGroup1 pCube1 polySurface2 polySurface1
f 1/15/1 2/2/2 3/35/3
f 3/34/4 2/28/5 4/24/6
f 3/3/7 4/25/8 5/19/9
f 5/18/10 4/26/11 6/6/12
f 5/5/13 6/32/14 7/31/15
f 7/30/16 6/33/17 8/8/18
f 7/7/19 8/21/20 1/16/21
f 1/9/22 8/22/23 2/10/24
f 2/29/25 8/23/26 4/4/27
f 4/27/28 8/11/29 6/12/30
f 7/13/31 1/17/32 5/14/33
f 5/20/34 1/1/35 3/36/36
