# This file uses centimeters as units for non-parametric coordinates.

mtllib dinoHorns.mtl
g default
v 0.000000 3.861263 0.173851
v -0.530330 3.861263 0.704181
v -0.000000 3.861263 1.234511
v 0.530330 3.861263 0.704181
v 0.000000 4.921923 0.704181
v 0.000000 3.967329 -0.722100
v -0.530330 3.967329 -0.191770
v -0.000000 3.967329 0.338560
v 0.530330 3.967329 -0.191770
v 0.000000 4.815857 -0.191770
v 0.000000 3.412306 -0.922474
v -0.530330 3.773170 -0.533852
v -0.000000 4.134033 -0.145229
v 0.530330 3.773170 -0.533852
v 0.000000 4.239517 -0.966888
v 0.000000 2.925644 -0.663564
v -0.530330 3.455974 -0.663564
v -0.000000 3.986304 -0.663564
v 0.530330 3.455974 -0.663564
v 0.000000 3.455974 -1.512092
v 0.000000 2.125318 -0.663564
v -0.530330 2.655648 -0.663564
v -0.000000 3.185978 -0.663564
v 0.530330 2.655648 -0.663564
v 0.000000 2.655648 -1.512092
vt 0.500000 0.000000
vt 0.750000 0.250000
vt 0.250000 0.250000
vt 0.500000 0.500000
vt 0.250000 0.500000
vt 0.375000 0.500000
vt 0.500000 1.000000
vt 0.500000 0.500000
vt 0.625000 0.500000
vt 0.750000 0.500000
vt 0.500000 0.000000
vt 0.750000 0.250000
vt 0.250000 0.250000
vt 0.500000 0.500000
vt 0.250000 0.500000
vt 0.375000 0.500000
vt 0.500000 1.000000
vt 0.500000 0.500000
vt 0.625000 0.500000
vt 0.750000 0.500000
vt 0.500000 0.000000
vt 0.750000 0.250000
vt 0.250000 0.250000
vt 0.500000 0.500000
vt 0.250000 0.500000
vt 0.375000 0.500000
vt 0.500000 1.000000
vt 0.500000 0.500000
vt 0.625000 0.500000
vt 0.750000 0.500000
vt 0.500000 0.000000
vt 0.750000 0.250000
vt 0.250000 0.250000
vt 0.500000 0.500000
vt 0.250000 0.500000
vt 0.375000 0.500000
vt 0.500000 1.000000
vt 0.500000 0.500000
vt 0.625000 0.500000
vt 0.750000 0.500000
vt 0.500000 0.000000
vt 0.750000 0.250000
vt 0.250000 0.250000
vt 0.500000 0.500000
vt 0.250000 0.500000
vt 0.375000 0.500000
vt 0.500000 1.000000
vt 0.500000 0.500000
vt 0.625000 0.500000
vt 0.750000 0.500000
vn 0.000000 -1.000000 0.000000
vn 0.000000 -1.000000 0.000000
vn 0.000000 -1.000000 0.000000
vn 0.000000 -1.000000 0.000000
vn -0.666667 0.333333 -0.666667
vn -0.666667 0.333333 -0.666667
vn -0.666667 0.333333 -0.666667
vn -0.666667 0.333333 0.666667
vn -0.666667 0.333333 0.666667
vn -0.666667 0.333333 0.666667
vn 0.666667 0.333333 0.666667
vn 0.666667 0.333333 0.666667
vn 0.666667 0.333333 0.666667
vn 0.666667 0.333333 -0.666667
vn 0.666667 0.333333 -0.666667
vn 0.666667 0.333333 -0.666667
vn 0.000000 -1.000000 0.000000
vn 0.000000 -1.000000 0.000000
vn 0.000000 -1.000000 0.000000
vn 0.000000 -1.000000 0.000000
vn -0.646762 0.404226 -0.646762
vn -0.646762 0.404226 -0.646762
vn -0.646762 0.404226 -0.646762
vn -0.646762 0.404226 0.646762
vn -0.646762 0.404226 0.646762
vn -0.646762 0.404226 0.646762
vn 0.646762 0.404226 0.646762
vn 0.646762 0.404226 0.646762
vn 0.646762 0.404226 0.646762
vn 0.646762 0.404226 -0.646762
vn 0.646762 0.404226 -0.646762
vn 0.646762 0.404226 -0.646762
vn -0.000000 -0.732795 0.680450
vn -0.000000 -0.732795 0.680450
vn -0.000000 -0.732795 0.680450
vn -0.000000 -0.732794 0.680450
vn -0.609208 -0.042516 -0.791870
vn -0.609208 -0.042516 -0.791870
vn -0.609208 -0.042516 -0.791870
vn -0.609208 0.786555 0.100978
vn -0.609208 0.786555 0.100978
vn -0.609208 0.786555 0.100978
vn 0.609208 0.786555 0.100978
vn 0.609208 0.786555 0.100978
vn 0.609208 0.786555 0.100978
vn 0.609208 -0.042516 -0.791870
vn 0.609208 -0.042516 -0.791870
vn 0.609208 -0.042516 -0.791870
vn 0.000000 0.000000 1.000000
vn 0.000000 0.000000 1.000000
vn 0.000000 0.000000 1.000000
vn 0.000000 0.000000 1.000000
vn -0.646762 -0.646762 -0.404226
vn -0.646762 -0.646762 -0.404226
vn -0.646762 -0.646762 -0.404226
vn -0.646762 0.646762 -0.404226
vn -0.646762 0.646762 -0.404226
vn -0.646762 0.646762 -0.404226
vn 0.646762 0.646762 -0.404226
vn 0.646762 0.646762 -0.404226
vn 0.646762 0.646762 -0.404226
vn 0.646762 -0.646762 -0.404226
vn 0.646762 -0.646762 -0.404226
vn 0.646762 -0.646762 -0.404226
vn 0.000000 0.000000 1.000000
vn 0.000000 0.000000 1.000000
vn 0.000000 0.000000 1.000000
vn 0.000000 0.000000 1.000000
vn -0.646762 -0.646762 -0.404226
vn -0.646762 -0.646762 -0.404226
vn -0.646762 -0.646762 -0.404226
vn -0.646762 0.646762 -0.404226
vn -0.646762 0.646762 -0.404226
vn -0.646762 0.646762 -0.404226
vn 0.646762 0.646762 -0.404226
vn 0.646761 0.646762 -0.404226
vn 0.646762 0.646762 -0.404226
vn 0.646762 -0.646762 -0.404226
vn 0.646762 -0.646762 -0.404226
vn 0.646762 -0.646762 -0.404226
s 1
g initialShadingGroup polySurface79
f 1/1/1 4/2/2 2/3/3
f 2/3/3 4/2/2 3/4/4
s off
f 1/5/5 2/6/6 5/7/7
f 2/6/8 3/8/9 5/7/10
f 3/8/11 4/9/12 5/7/13
f 4/9/14 1/10/15 5/7/16
s 2
f 6/11/17 9/12/18 7/13/19
f 7/13/19 9/12/18 8/14/20
s off
f 6/15/21 7/16/22 10/17/23
f 7/16/24 8/18/25 10/17/26
f 8/18/27 9/19/28 10/17/29
f 9/19/30 6/20/31 10/17/32
s 3
f 11/21/33 14/22/34 12/23/35
f 12/23/35 14/22/34 13/24/36
s off
f 11/25/37 12/26/38 15/27/39
f 12/26/40 13/28/41 15/27/42
f 13/28/43 14/29/44 15/27/45
f 14/29/46 11/30/47 15/27/48
s 4
f 16/31/49 19/32/50 17/33/51
f 17/33/51 19/32/50 18/34/52
s off
f 16/35/53 17/36/54 20/37/55
f 17/36/56 18/38/57 20/37/58
f 18/38/59 19/39/60 20/37/61
f 19/39/62 16/40/63 20/37/64
s 5
f 21/41/65 24/42/66 22/43/67
f 22/43/67 24/42/66 23/44/68
s off
f 21/45/69 22/46/70 25/47/71
f 22/46/72 23/48/73 25/47/74
f 23/48/75 24/49/76 25/47/77
f 24/49/78 21/50/79 25/47/80
