# This file uses centimeters as units for non-parametric coordinates.

mtllib dragonHeadCollider.mtl
g dragonHeadCollider:default1
v -0.677976 -0.677976 0.677976
v 0.677976 -0.677976 0.677976
g default
v 0.349625 -0.349625 0.677976
v -0.677976 -0.349625 0.677976
v -0.677976 -0.349625 0.349625
v -0.677976 -0.349625 0.421915
g dragonHeadCollider:default1
v 0.677976 -0.677976 -0.677976
g default
v 0.677976 -0.349625 0.677976
g dragonHeadCollider:default1
v -0.677976 -0.677976 -0.677976
g default
v -0.677976 -0.349625 -0.219329
v -0.677976 -0.238327 -0.219329
v -0.677976 -0.039392 -0.219329
v -0.677976 -0.039392 0.039392
g dragonHeadCollider:default1
v -0.677976 0.677976 -0.677976
g default
v 0.677976 -0.219329 -0.219329
v 0.677976 -0.349625 -0.219329
v 0.677976 -0.349625 0.225652
g dragonHeadCollider:default1
v 0.677976 0.677976 -0.677976
g default
v -0.677976 -0.039392 0.139426
v -0.677976 -0.039392 0.677976
g dragonHeadCollider:default1
v -0.677976 0.677976 0.677976
v 0.677976 0.677976 0.677976
g default
v 0.677976 -0.039392 -0.039392
v 0.677976 -0.039392 -0.219329
v 0.677976 -0.177440 -0.219329
v 0.039392 -0.039392 0.677976
v 0.677976 -0.039392 0.677976
v 0.677976 -0.039392 0.335689
v -0.485567 -0.539591 0.560093
v -0.485567 -0.349625 0.560093
v 0.324467 -0.349625 0.560093
v 0.514433 -0.539591 0.560093
v 0.514433 -0.539591 -0.439907
v -0.485567 -0.349625 0.370127
v -0.485567 -0.349625 0.394065
v 0.514433 -0.349625 0.560093
v -0.485567 -0.539591 -0.439907
v 0.514433 -0.349625 0.249324
v 0.514433 -0.349625 -0.219329
v 0.514433 -0.319014 -0.219329
v -0.485567 0.460409 -0.439907
v -0.485567 -0.039392 0.059894
v -0.485567 -0.039392 -0.219329
v -0.485567 -0.229687 -0.219329
v -0.485567 -0.349625 -0.219329
v 0.514433 0.460409 -0.439907
v 0.514433 0.460409 0.560093
v 0.514433 -0.184784 -0.219329
v 0.514433 -0.039392 -0.219329
v 0.514433 -0.039392 0.060292
v -0.485567 0.460409 0.560093
v -0.485567 -0.039392 0.560093
v -0.485567 -0.039392 0.167276
v 0.514433 -0.039392 0.560093
v 0.514433 -0.039392 0.312018
v 0.014234 -0.039392 0.560093
vt 0.375000 0.000000
vt 0.625000 0.000000
vt 0.564461 0.060539
vt 0.375000 0.060539
vt 0.314461 0.060539
vt 0.327789 0.060539
vt 0.375000 1.000000
vt 0.625000 0.750000
vt 0.625000 1.000000
vt 0.625000 0.060539
vt 0.125000 0.000000
vt 0.209562 0.060539
vt 0.209562 0.081059
vt 0.209562 0.117737
vt 0.257263 0.117737
vt 0.125000 0.250000
vt 0.375000 0.750000
vt 0.875000 0.000000
vt 0.790438 0.084562
vt 0.790438 0.060539
vt 0.708396 0.060539
vt 0.375000 0.500000
vt 0.625000 0.500000
vt 0.275706 0.117737
vt 0.375000 0.117737
vt 0.375000 0.250000
vt 0.625000 0.250000
vt 0.757263 0.117737
vt 0.790438 0.117737
vt 0.790438 0.092285
vt 0.875000 0.250000
vt 0.507263 0.117737
vt 0.625000 0.117737
vt 0.688108 0.117737
vt 0.375000 0.000000
vt 0.375000 0.047492
vt 0.577508 0.047492
vt 0.625000 0.000000
vt 0.375000 1.000000
vt 0.625000 1.000000
vt 0.625000 0.750000
vt 0.327508 0.047492
vt 0.333493 0.047492
vt 0.625000 0.047492
vt 0.375000 0.750000
vt 0.702692 0.047492
vt 0.819856 0.047492
vt 0.819856 0.055144
vt 0.875000 0.000000
vt 0.125000 0.000000
vt 0.125000 0.250000
vt 0.249950 0.125050
vt 0.180144 0.125050
vt 0.180144 0.077476
vt 0.180144 0.047492
vt 0.625000 0.500000
vt 0.625000 0.250000
vt 0.875000 0.250000
vt 0.819856 0.088702
vt 0.819856 0.125050
vt 0.749950 0.125050
vt 0.375000 0.500000
vt 0.375000 0.250000
vt 0.375000 0.125050
vt 0.276796 0.125050
vt 0.625000 0.125050
vt 0.687019 0.125050
vt 0.499950 0.125050
vt 0.513755 0.361245
vt 0.513755 0.275674
vt 0.490647 0.275674
vt 0.464689 0.275674
vt 0.464689 0.410311
vt 0.471651 0.403349
vt 0.471651 0.305144
vt 0.489737 0.305144
vt 0.507837 0.305144
vt 0.507837 0.367163
vt 0.507837 0.430095
vt 0.507837 0.500000
vt 0.513755 0.500000
vt 0.513755 0.455016
vt 0.464689 0.435320
vt 0.464689 0.500000
vt 0.471651 0.500000
vt 0.471651 0.430194
vt 0.507837 0.617163
vt 0.513755 0.611245
vt 0.464689 0.660311
vt 0.471651 0.653349
vt 0.507837 0.725332
vt 0.507837 0.750000
vt 0.513755 0.750000
vt 0.513755 0.645002
vt 0.464689 0.750000
vt 0.471651 0.750000
vt 0.507837 0.867163
vt 0.513755 0.861245
vt 0.464689 0.892238
vt 0.464689 0.910311
vt 0.471651 0.903349
vt 0.471651 0.897364
vt 0.464689 0.974326
vt 0.501873 0.974326
vt 0.513755 0.974326
vt 0.507837 0.944856
vt 0.500963 0.944856
vt 0.471651 0.944856
vn 0.000000 0.000000 1.000000
vn 0.000000 0.000000 1.000000
vn 0.000000 0.000000 1.000000
vn 0.000000 0.000000 1.000000
vn -1.000000 0.000000 0.000000
vn -1.000000 0.000000 0.000000
vn -1.000000 0.000000 0.000000
vn -1.000000 0.000000 0.000000
vn 0.000000 -1.000000 0.000000
vn 0.000000 -1.000000 0.000000
vn 0.000000 -1.000000 0.000000
vn 0.000000 0.000000 1.000000
vn -1.000000 0.000000 0.000000
vn -1.000000 0.000000 0.000000
vn -1.000000 0.000000 0.000000
vn -1.000000 0.000000 0.000000
vn -1.000000 0.000000 0.000000
vn -1.000000 0.000000 0.000000
vn 0.000000 -1.000000 0.000000
vn 1.000000 0.000000 0.000000
vn 1.000000 0.000000 0.000000
vn 1.000000 0.000000 0.000000
vn 1.000000 0.000000 0.000000
vn 1.000000 0.000000 0.000000
vn 1.000000 0.000000 0.000000
vn 0.000000 0.000000 -1.000000
vn 0.000000 0.000000 -1.000000
vn 0.000000 0.000000 -1.000000
vn -1.000000 0.000000 0.000000
vn -1.000000 0.000000 0.000000
vn -1.000000 0.000000 0.000000
vn 0.000000 0.000000 -1.000000
vn 1.000000 0.000000 0.000000
vn 1.000000 0.000000 0.000000
vn 1.000000 0.000000 0.000000
vn 1.000000 0.000000 0.000000
vn 1.000000 0.000000 0.000000
vn 0.000000 1.000000 0.000000
vn 0.000000 1.000000 0.000000
vn 0.000000 1.000000 0.000000
vn 0.000000 1.000000 0.000000
vn 0.000000 0.000000 1.000000
vn 0.000000 0.000000 1.000000
vn 0.000000 0.000000 1.000000
vn 1.000000 0.000000 0.000000
vn 1.000000 0.000000 0.000000
vn 0.000000 0.000000 1.000000
vn 0.000000 0.000000 1.000000
vn 0.000000 0.000000 -1.000000
vn 0.000000 0.000000 -1.000000
vn 0.000000 0.000000 -1.000000
vn 0.000000 0.000000 -1.000000
vn 0.000000 1.000000 0.000000
vn 0.000000 1.000000 0.000000
vn 0.000000 1.000000 0.000000
vn 1.000000 0.000000 0.000000
vn 1.000000 0.000000 0.000000
vn 1.000000 0.000000 0.000000
vn 1.000000 0.000000 0.000000
vn 0.000000 0.000000 -1.000000
vn 0.000000 1.000000 0.000000
vn -1.000000 0.000000 0.000000
vn -1.000000 -0.000000 0.000000
vn -1.000000 -0.000000 0.000000
vn -1.000000 0.000000 0.000000
vn -1.000000 0.000000 0.000000
vn -1.000000 0.000000 0.000000
vn 1.000000 0.000000 0.000000
vn 1.000000 0.000000 0.000000
vn 1.000000 0.000000 0.000000
vn 1.000000 0.000000 0.000000
vn 1.000000 0.000000 0.000000
vn 1.000000 0.000000 0.000000
vn 0.000000 0.000000 1.000000
vn 0.000000 0.000000 1.000000
vn 0.000000 0.000000 1.000000
vn -1.000000 0.000000 0.000000
vn -1.000000 0.000000 0.000000
vn -1.000000 0.000000 0.000000
vn -1.000000 0.000000 0.000000
vn -1.000000 0.000000 0.000000
vn 0.000000 0.000000 1.000000
vn 1.000000 0.000000 0.000000
vn 1.000000 0.000000 0.000000
vn 1.000000 0.000000 0.000000
vn -1.000000 0.000000 0.000000
vn -1.000000 0.000000 0.000000
vn 0.000000 -1.000000 0.000000
vn 0.000000 -1.000000 0.000000
vn 0.000000 -1.000000 0.000000
vn 0.000000 -1.000000 0.000000
vn 0.000000 0.000000 -1.000000
vn 0.000000 0.000000 -1.000000
vn 0.000000 0.000000 -1.000000
vn 0.000000 0.000000 -1.000000
vn 0.000000 0.000000 -1.000000
vn 0.000000 -1.000000 0.000000
vn 0.000000 -1.000000 0.000000
vn 0.000000 -1.000000 0.000000
vn 0.000000 -1.000000 0.000000
vn 0.000000 -1.000000 -0.000000
vn 0.000000 -1.000000 -0.000000
vn 0.000000 -1.000000 -0.000000
vn 0.000000 -1.000000 0.000000
vn 0.000000 -1.000000 0.000000
vn 0.000000 -1.000000 0.000000
vn 0.000000 -1.000000 0.000000
vn 0.000000 -1.000000 0.000000
vn 0.000000 -1.000000 0.000000
vn 0.000000 -1.000000 0.000000
vn 0.000000 -1.000000 0.000000
vn 0.000000 -1.000000 0.000000
vn 0.000000 -1.000000 0.000000
vn 0.000000 -1.000000 0.000000
vn 0.000000 0.000000 1.000000
vn 0.000000 0.000000 1.000000
vn 0.000000 0.000000 1.000000
vn 0.000000 0.000000 1.000000
vn 0.000000 0.000000 1.000000
vn 0.000000 0.000000 1.000000
vn 0.000000 0.000000 1.000000
vn 0.000000 0.000000 1.000000
vn 0.000000 0.000000 1.000000
vn 0.000000 0.000000 1.000000
vn 0.000000 0.000000 1.000000
vn 0.000000 0.000000 1.000000
vn 0.000000 0.000000 1.000000
vn 0.000000 0.000000 1.000000
vn 0.000000 1.000000 0.000000
vn 0.000000 1.000000 0.000000
vn 0.000000 1.000000 0.000000
vn 0.000000 1.000000 0.000000
vn 0.000000 1.000000 0.000000
vn 0.000000 1.000000 0.000000
vn 0.000000 1.000000 0.000000
vn 0.000000 1.000000 0.000000
vn 0.000000 1.000000 0.000000
vn 0.000000 1.000000 0.000000
vn 0.000000 1.000000 0.000000
vn 0.000000 1.000000 0.000000
vn 0.000000 1.000000 0.000000
vn 0.000000 1.000000 0.000000
vn 0.000000 1.000000 0.000000
vn 0.000000 1.000000 0.000000
s 1
g dragonHeadCollider:initialShadingGroup dragonHeadCollider:pCube3 initialShadingGroup dragonHeadCollider:polySurface3
f 2/2/1 3/3/2 1/1/3
f 1/1/3 3/3/2 4/4/4
s 2
f 5/5/5 1/1/6 6/6/7
f 1/1/6 4/4/8 6/6/7
s 3
f 1/7/9 7/8/10 2/9/11
s 1
f 3/3/2 2/2/1 8/10/12
s 2
f 1/1/6 5/5/5 9/11/13
f 5/5/5 10/12/14 9/11/13
f 13/15/15 14/16/16 12/14/17
f 9/11/13 10/12/14 14/16/16
f 10/12/14 11/13/18 14/16/16
f 11/13/18 12/14/17 14/16/16
s 3
f 9/17/19 7/8/10 1/7/9
s 5
f 15/19/20 16/20/21 7/18/22
f 7/18/22 16/20/21 2/2/23
f 16/20/21 17/21/24 2/2/23
f 2/2/23 17/21/24 8/10/25
s 6
f 14/22/26 18/23/27 9/17/28
s 2
f 14/16/16 13/15/15 21/26/29
f 13/15/15 19/24/30 21/26/29
f 19/24/30 20/25/31 21/26/29
s 6
f 9/17/28 18/23/27 7/8/32
s 5
f 22/27/33 23/28/34 18/31/35
f 7/18/22 18/31/35 15/19/20
f 15/19/20 18/31/35 25/30/36
f 25/30/36 18/31/35 24/29/37
f 23/28/34 24/29/37 18/31/35
s 8
f 14/22/38 22/27/39 18/23/40
f 21/26/41 22/27/39 14/22/38
s 9
f 26/32/42 21/26/43 20/25/44
s 5
f 23/28/34 22/27/33 28/34/45
f 22/27/33 27/33/46 28/34/45
s 9
f 21/26/43 26/32/42 22/27/47
f 22/27/47 26/32/42 27/33/48
s 10
g initialShadingGroup dragonHeadCollider:polySurface3
f 30/36/49 31/37/50 29/35/51
f 29/35/51 31/37/50 32/38/52
s 11
f 29/39/53 32/40/54 33/41/55
s 12
f 34/42/56 35/43/57 29/35/58
f 30/36/59 29/35/58 35/43/57
s 10
f 36/44/60 32/38/52 31/37/50
s 11
f 37/45/61 29/39/53 33/41/55
s 13
f 40/48/62 33/49/63 39/47/64
f 33/49/63 32/38/65 39/47/64
f 39/47/64 32/38/65 38/46/66
f 32/38/65 36/44/67 38/46/66
s 12
f 42/52/68 43/53/69 41/51/70
f 41/51/70 43/53/69 37/50/71
f 43/53/69 44/54/72 37/50/71
f 44/54/72 45/55/73 37/50/71
f 37/50/71 45/55/73 29/35/58
f 45/55/73 34/42/56 29/35/58
s 15
f 37/45/74 33/41/75 46/56/76
s 13
f 47/57/77 46/58/78 50/61/79
f 33/49/63 40/48/62 46/58/78
f 40/48/62 48/59/80 46/58/78
f 48/59/80 49/60/81 46/58/78
f 46/58/78 49/60/81 50/61/79
s 15
f 41/62/82 37/45/74 46/56/76
s 12
f 41/51/70 51/63/83 42/52/68
f 42/52/68 51/63/83 53/65/84
f 51/63/83 52/64/85 53/65/84
s 13
f 50/61/79 55/67/86 47/57/77
f 54/66/87 47/57/77 55/67/86
s 17
f 41/62/88 46/56/89 47/57/90
f 51/63/91 41/62/88 47/57/90
s 18
f 52/64/92 51/63/93 56/68/94
f 51/63/93 47/57/95 56/68/94
f 56/68/94 47/57/95 54/66/96
s 19
f 19/73/97 53/74/98 20/72/99
f 53/74/98 52/75/100 20/72/99
f 20/72/99 52/75/100 26/71/101
f 52/75/100 56/76/102 26/71/101
f 56/76/102 54/77/103 26/71/101
f 26/71/101 54/77/103 27/70/104
f 27/70/104 54/77/103 28/69/105
f 28/69/105 54/77/103 55/78/106
f 28/69/105 55/78/106 23/82/107
f 55/78/106 50/79/108 23/82/107
f 50/79/108 49/80/109 23/82/107
f 49/80/109 24/81/110 23/82/107
f 53/74/98 19/73/97 42/86/111
f 19/73/97 13/83/112 42/86/111
f 42/86/111 13/83/112 43/85/113
f 13/83/112 12/84/114 43/85/113
s 20
f 48/87/115 25/88/116 49/80/117
f 49/80/117 25/88/116 24/81/118
s 21
f 11/89/119 44/90/120 12/84/121
f 12/84/121 44/90/120 43/85/122
s 20
f 25/88/116 48/87/115 15/94/123
f 48/87/115 40/91/124 15/94/123
f 39/92/125 16/93/126 40/91/124
f 40/91/124 16/93/126 15/94/123
s 21
f 10/95/127 45/96/128 11/89/119
f 11/89/119 45/96/128 44/90/120
s 22
f 38/97/129 17/98/130 39/92/131
f 39/92/131 17/98/130 16/93/132
f 6/100/133 35/101/134 5/99/135
f 35/101/134 34/102/136 5/99/135
f 34/102/136 45/96/137 5/99/135
f 10/95/138 5/99/135 45/96/137
f 17/98/130 38/97/129 8/105/139
f 38/97/129 36/106/140 8/105/139
f 8/105/139 36/106/140 3/104/141
f 36/106/140 31/107/142 3/104/141
f 3/104/141 31/107/142 4/103/143
f 31/107/142 30/108/144 4/103/143
f 4/103/143 30/108/144 6/100/133
f 6/100/133 30/108/144 35/101/134
