# This file uses centimeters as units for non-parametric coordinates.

mtllib dragonTail3.mtl
g dragonTail:default1
v -0.140915 -0.140092 0.165982
v 0.149039 -0.140092 0.165982
v -0.140915 0.149862 0.165982
v 0.149039 0.149862 0.165982
v -0.111739 0.066006 -0.179774
v 0.119863 0.066006 -0.179774
v -0.111739 -0.140092 -0.179774
v 0.119863 -0.140092 -0.179774
vt 0.375000 0.000000
vt 0.625000 0.000000
vt 0.375000 0.250000
vt 0.625000 0.250000
vt 0.375000 0.500000
vt 0.625000 0.500000
vt 0.375000 0.750000
vt 0.625000 0.750000
vt 0.375000 1.000000
vt 0.625000 1.000000
vt 0.875000 0.000000
vt 0.875000 0.250000
vt 0.125000 0.000000
vt 0.125000 0.250000
vn 0.000000 0.000000 1.000000
vn 0.000000 0.000000 1.000000
vn 0.000000 0.000000 1.000000
vn 0.000000 0.000000 1.000000
vn 0.000000 0.000000 1.000000
vn 0.000000 0.000000 1.000000
vn 0.000000 1.000000 0.000000
vn 0.000000 1.000000 0.000000
vn 0.000000 1.000000 0.000000
vn 0.000000 1.000000 0.000000
vn 0.000000 1.000000 0.000000
vn 0.000000 1.000000 0.000000
vn 0.000000 0.000000 -1.000000
vn 0.000000 0.000000 -1.000000
vn 0.000000 0.000000 -1.000000
vn 0.000000 0.000000 -1.000000
vn 0.000000 0.000000 -1.000000
vn 0.000000 0.000000 -1.000000
vn 0.000000 -1.000000 0.000000
vn 0.000000 -1.000000 0.000000
vn 0.000000 -1.000000 0.000000
vn 0.000000 -1.000000 0.000000
vn 0.000000 -1.000000 0.000000
vn 0.000000 -1.000000 0.000000
vn 1.000000 0.000000 0.000000
vn 1.000000 0.000000 0.000000
vn 1.000000 0.000000 0.000000
vn 1.000000 0.000000 0.000000
vn 1.000000 0.000000 0.000000
vn 1.000000 0.000000 0.000000
vn -1.000000 0.000000 -0.000000
vn -1.000000 0.000000 -0.000000
vn -1.000000 0.000000 -0.000000
vn -1.000000 0.000000 -0.000000
vn -1.000000 0.000000 -0.000000
vn -1.000000 0.000000 -0.000000
s off
g dragonTail:initialShadingGroup dragonTail:initialShadingGroup1 dragonTail:initialShadingGroup2 dragonTail:initialShadingGroup3 dragonTail:initialShadingGroup4 dragonTail:initialShadingGroup5 dragonTail:initialShadingGroup6 dragonTail:initialShadingGroup7 dragonTail:initialShadingGroup8 dragonTail:pCube2 dragonTail:pPyramid2 dragonTail:polySurface2 dragonTail:polySurface3 dragonTail:polySurface4 dragonTail:polySurface6 dragonTail:polySurface8 dragonTail:polySurface10 dragonTail:polySurface12 dragonTail:polySurface14 dragonTail:polySurface16 dragonTail:polySurface19 dragonTail:polySurface20 initialShadingGroup polySurface23
f 1/1/1 2/2/2 3/3/3
f 3/3/4 2/2/5 4/4/6
f 3/3/7 4/4/8 5/5/9
f 5/5/10 4/4/11 6/6/12
f 5/5/13 6/6/14 7/7/15
f 7/7/16 6/6/17 8/8/18
f 7/7/19 8/8/20 1/9/21
f 1/9/22 8/8/23 2/10/24
f 2/2/25 8/11/26 4/4/27
f 4/4/28 8/11/29 6/12/30
f 7/13/31 1/1/32 5/14/33
f 5/14/34 1/1/35 3/3/36
