# This file uses centimeters as units for non-parametric coordinates.

mtllib dragonTail2Horn.mtl
g default1
v -0.000187 0.133162 -0.145669
v -0.175531 0.165101 -0.006272
v -0.000187 0.197040 0.133126
v 0.175158 0.165101 -0.006272
v -0.000187 0.409465 -0.050258
vt 0.500000 0.000000
vt 0.750000 0.250000
vt 0.250000 0.250000
vt 0.500000 0.500000
vt 0.250000 0.500000
vt 0.375000 0.500000
vt 0.500000 1.000000
vt 0.500000 0.500000
vt 0.625000 0.500000
vt 0.750000 0.500000
vn 0.000000 -0.974742 0.223333
vn 0.000000 -0.974742 0.223333
vn 0.000000 -0.974742 0.223333
vn 0.000000 -0.974742 0.223333
vn 0.000000 -0.974742 0.223333
vn 0.000000 -0.974742 0.223333
vn -0.569038 0.268403 -0.777274
vn -0.569039 0.268402 -0.777274
vn -0.569039 0.268402 -0.777274
vn -0.584734 0.530109 0.614060
vn -0.584734 0.530109 0.614060
vn -0.584734 0.530109 0.614060
vn 0.584734 0.530109 0.614061
vn 0.584734 0.530109 0.614061
vn 0.584734 0.530109 0.614061
vn 0.569039 0.268402 -0.777274
vn 0.569039 0.268402 -0.777274
vn 0.569039 0.268402 -0.777274
s off
g initialShadingGroup initialShadingGroup1 initialShadingGroup2 initialShadingGroup3 initialShadingGroup4 initialShadingGroup5 initialShadingGroup6 pPyramid2 polySurface2 polySurface6 polySurface7 polySurface10 polySurface11 polySurface14 polySurface15 polySurface18 polySurface19 polySurface27 polySurface1
f 1/1/1 4/2/2 2/3/3
f 2/3/4 4/2/5 3/4/6
f 1/5/7 2/6/8 5/7/9
f 2/6/10 3/8/11 5/7/12
f 3/8/13 4/9/14 5/7/15
f 4/9/16 1/10/17 5/7/18
