# This file uses centimeters as units for non-parametric coordinates.

mtllib grass.mtl
g default
v 0.019307 -0.105238 -0.190809
v -0.174518 -0.105238 0.003016
v 0.019306 -0.105238 0.196840
v 0.213131 -0.105238 0.003016
v 0.019306 1.263425 0.003016
vt 0.500000 0.000000
vt 0.250000 0.250000
vt 0.500000 0.500000
vt 0.750000 0.250000
vt 0.250000 0.500000
vt 0.375000 0.500000
vt 0.500000 0.500000
vt 0.625000 0.500000
vt 0.750000 0.500000
vt 0.500000 1.000000
vn 0.000000 -1.000000 0.000000
vn 0.000000 -1.000000 0.000000
vn 0.000000 -1.000000 0.000000
vn 0.000000 -1.000000 0.000000
vn -0.703588 0.099639 -0.703588
vn -0.703588 0.099639 -0.703588
vn -0.703588 0.099639 -0.703588
vn -0.703588 0.099639 0.703588
vn -0.703588 0.099639 0.703588
vn -0.703588 0.099639 0.703588
vn 0.703588 0.099639 0.703588
vn 0.703588 0.099639 0.703588
vn 0.703588 0.099639 0.703588
vn 0.703588 0.099639 -0.703588
vn 0.703588 0.099639 -0.703588
vn 0.703588 0.099639 -0.703588
s off
g pPyramid1
usemtl initialShadingGroup
f 1/1/1 4/4/2 3/3/3 2/2/4
f 1/5/5 2/6/6 5/10/7
f 2/6/8 3/7/9 5/10/10
f 3/7/11 4/8/12 5/10/13
f 4/8/14 1/9/15 5/10/16
g default
v -0.021004 -0.437672 0.007994
v -0.278433 -0.530047 0.026246
v -0.273016 -0.491531 0.297582
v -0.015587 -0.399156 0.279330
v -0.616389 0.809569 -0.018710
vt 0.500000 0.000000
vt 0.250000 0.250000
vt 0.500000 0.500000
vt 0.750000 0.250000
vt 0.250000 0.500000
vt 0.375000 0.500000
vt 0.500000 0.500000
vt 0.625000 0.500000
vt 0.750000 0.500000
vt 0.500000 1.000000
vn 0.342947 -0.930960 0.125303
vn 0.342947 -0.930960 0.125303
vn 0.342947 -0.930960 0.125303
vn 0.342947 -0.930960 0.125303
vn -0.053836 -0.047054 -0.997441
vn -0.053836 -0.047054 -0.997441
vn -0.053836 -0.047054 -0.997441
vn -0.968644 -0.242564 0.053771
vn -0.968644 -0.242564 0.053771
vn -0.968644 -0.242564 0.053771
vn -0.014506 0.232575 0.972470
vn -0.014506 0.232575 0.972470
vn -0.014506 0.232575 0.972470
vn 0.900302 0.428084 -0.078741
vn 0.900302 0.428084 -0.078741
vn 0.900302 0.428084 -0.078741
s off
g pasted__pPyramid1 group
usemtl initialShadingGroup
f 6/11/17 9/14/18 8/13/19 7/12/20
f 6/15/21 7/16/22 10/20/23
f 7/16/24 8/17/25 10/20/26
f 8/17/27 9/18/28 10/20/29
f 9/18/30 6/19/31 10/20/32
g default
v 0.273062 -0.272030 -0.282279
v 0.062998 -0.186986 -0.203248
v 0.101756 -0.082795 0.009468
v 0.311821 -0.167839 -0.069564
v 0.433235 1.013502 -0.764523
vt 0.500000 0.000000
vt 0.250000 0.250000
vt 0.500000 0.500000
vt 0.750000 0.250000
vt 0.250000 0.500000
vt 0.375000 0.500000
vt 0.500000 0.500000
vt 0.625000 0.500000
vt 0.750000 0.500000
vt 0.500000 1.000000
vn -0.179610 -0.870130 0.458928
vn -0.179610 -0.870130 0.458928
vn -0.179610 -0.870130 0.458928
vn -0.179610 -0.870130 0.458928
vn -0.432623 -0.268912 -0.860537
vn -0.432623 -0.268912 -0.860537
vn -0.432623 -0.268912 -0.860537
vn -0.952076 0.304907 0.024130
vn -0.952076 0.304907 0.024130
vn -0.952076 0.304907 0.024130
vn 0.462522 0.413758 0.784141
vn 0.462522 0.413758 0.784141
vn 0.462522 0.413758 0.784141
vn 0.981975 -0.160061 -0.100525
vn 0.981975 -0.160061 -0.100525
vn 0.981975 -0.160061 -0.100525
s off
g pasted__pPyramid1 group1
usemtl initialShadingGroup
f 11/21/33 14/24/34 13/23/35 12/22/36
f 11/25/37 12/26/38 15/30/39
f 12/26/40 13/27/41 15/30/42
f 13/27/43 14/28/44 15/30/45
f 14/28/46 11/29/47 15/30/48
g default
v 0.315330 -0.284549 -0.203870
v 0.140999 -0.166810 -0.028136
v 0.334673 -0.169540 0.165820
v 0.509004 -0.287279 -0.009914
v 0.749721 1.008853 -0.425731
vt 0.500000 0.000000
vt 0.250000 0.250000
vt 0.500000 0.500000
vt 0.750000 0.250000
vt 0.250000 0.500000
vt 0.375000 0.500000
vt 0.500000 0.500000
vt 0.625000 0.500000
vt 0.750000 0.500000
vt 0.500000 1.000000
vn -0.310317 -0.902996 0.297156
vn -0.310317 -0.902996 0.297156
vn -0.310317 -0.902996 0.297156
vn -0.310317 -0.902996 0.297156
vn -0.672122 0.099884 -0.733673
vn -0.672122 0.099884 -0.733673
vn -0.672122 0.099884 -0.733673
vn -0.601903 0.517370 0.608310
vn -0.601903 0.517370 0.608310
vn -0.601903 0.517370 0.608310
vn 0.733961 0.080064 0.674456
vn 0.733961 0.080064 0.674456
vn 0.733961 0.080064 0.674456
vn 0.663742 -0.337422 -0.667527
vn 0.663742 -0.337422 -0.667527
vn 0.663742 -0.337422 -0.667527
s off
g pasted__pPyramid1 group2
usemtl initialShadingGroup
f 16/31/49 19/34/50 18/33/51 17/32/52
f 16/35/53 17/36/54 20/40/55
f 17/36/56 18/37/57 20/40/58
f 18/37/59 19/38/60 20/40/61
f 19/38/62 16/39/63 20/40/64
g default
v 0.019307 -0.058832 0.046447
v -0.174518 -0.093927 0.237068
v 0.019306 -0.129022 0.427689
v 0.213131 -0.093927 0.237068
v 0.019306 1.252114 0.484884
vt 0.500000 0.000000
vt 0.250000 0.250000
vt 0.500000 0.500000
vt 0.750000 0.250000
vt 0.250000 0.500000
vt 0.375000 0.500000
vt 0.500000 0.500000
vt 0.625000 0.500000
vt 0.750000 0.500000
vt 0.500000 1.000000
vn 0.000000 -0.983471 -0.181064
vn 0.000000 -0.983471 -0.181064
vn 0.000000 -0.983471 -0.181064
vn 0.000000 -0.983471 -0.181064
vn -0.703588 0.225387 -0.673918
vn -0.703588 0.225387 -0.673918
vn -0.703588 0.225387 -0.673918
vn -0.703588 -0.029402 0.710000
vn -0.703588 -0.029402 0.710000
vn -0.703588 -0.029402 0.710000
vn 0.703588 -0.029402 0.710000
vn 0.703588 -0.029402 0.710000
vn 0.703588 -0.029402 0.710000
vn 0.703588 0.225387 -0.673917
vn 0.703588 0.225387 -0.673917
vn 0.703588 0.225387 -0.673917
s off
g pasted__pPyramid1 group3
usemtl initialShadingGroup
f 21/41/65 24/44/66 23/43/67 22/42/68
f 21/45/69 22/46/70 25/50/71
f 22/46/72 23/47/73 25/50/74
f 23/47/75 24/48/76 25/50/77
f 24/48/78 21/49/79 25/50/80
g default
v 0.210859 -0.466830 0.036266
v 0.091050 -0.434536 0.230090
v 0.210859 -0.466830 0.423915
v 0.330669 -0.499123 0.230090
v 0.567058 0.854670 0.230090
vt 0.500000 0.000000
vt 0.250000 0.250000
vt 0.500000 0.500000
vt 0.750000 0.250000
vt 0.250000 0.500000
vt 0.375000 0.500000
vt 0.500000 0.500000
vt 0.625000 0.500000
vt 0.750000 0.500000
vt 0.500000 1.000000
vn -0.260253 -0.965540 0.000000
vn -0.260253 -0.965540 0.000000
vn -0.260253 -0.965540 0.000000
vn -0.260253 -0.965540 0.000000
vn -0.791001 0.292058 -0.537605
vn -0.791001 0.292058 -0.537605
vn -0.791001 0.292058 -0.537605
vn -0.791001 0.292058 0.537605
vn -0.791001 0.292058 0.537605
vn -0.791001 0.292058 0.537605
vn 0.830629 -0.145038 0.537605
vn 0.830629 -0.145038 0.537605
vn 0.830629 -0.145038 0.537605
vn 0.830629 -0.145038 -0.537605
vn 0.830629 -0.145038 -0.537605
vn 0.830629 -0.145038 -0.537605
s off
g pasted__pPyramid1 group4
usemtl initialShadingGroup
f 26/51/81 29/54/82 28/53/83 27/52/84
f 26/55/85 27/56/86 30/60/87
f 27/56/88 28/57/89 30/60/90
f 28/57/91 29/58/92 30/60/93
f 29/58/94 26/59/95 30/60/96
g default
v -0.048960 -0.437892 -0.185386
v -0.302406 -0.467216 -0.085181
v -0.231025 -0.323890 0.137302
v 0.022421 -0.294566 0.037096
v -0.520450 0.776543 -0.647610
vt 0.500000 0.000000
vt 0.250000 0.250000
vt 0.500000 0.500000
vt 0.750000 0.250000
vt 0.250000 0.500000
vt 0.375000 0.500000
vt 0.500000 0.500000
vt 0.625000 0.500000
vt 0.750000 0.500000
vt 0.500000 1.000000
vn 0.277977 -0.845668 0.455604
vn 0.277977 -0.845668 0.455604
vn 0.277977 -0.845668 0.455604
vn 0.277977 -0.845668 0.455604
vn -0.286811 -0.436014 -0.853013
vn -0.286811 -0.436014 -0.853013
vn -0.286811 -0.436014 -0.853013
vn -0.947713 -0.022184 0.318353
vn -0.947713 -0.022184 0.318353
vn -0.947713 -0.022184 0.318353
vn 0.231416 0.604538 0.762221
vn 0.231416 0.604538 0.762221
vn 0.231416 0.604538 0.762221
vn 0.892318 0.190708 -0.409145
vn 0.892318 0.190708 -0.409145
vn 0.892318 0.190708 -0.409145
s off
g pasted__pPyramid1 group5
usemtl initialShadingGroup
f 31/61/97 34/64/98 33/63/99 32/62/100
f 31/65/101 32/66/102 35/70/103
f 32/66/104 33/67/105 35/70/106
f 33/67/107 34/68/108 35/70/109
f 34/68/110 31/69/111 35/70/112
g default
v -0.403931 -0.161986 -0.023362
v -0.496839 -0.277892 0.207006
v -0.239502 -0.303626 0.297844
v -0.146594 -0.187720 0.067475
v -0.405512 1.000805 0.724114
vt 0.500000 0.000000
vt 0.250000 0.250000
vt 0.500000 0.500000
vt 0.750000 0.250000
vt 0.250000 0.500000
vt 0.375000 0.500000
vt 0.500000 0.500000
vt 0.625000 0.500000
vt 0.750000 0.500000
vt 0.500000 1.000000
vn 0.061225 -0.901326 -0.428793
vn 0.061225 -0.901326 -0.428793
vn 0.061225 -0.901326 -0.428793
vn 0.061225 -0.901326 -0.428793
vn -0.940240 0.183224 -0.287017
vn -0.940240 0.183224 -0.287017
vn -0.940240 0.183224 -0.287017
vn -0.343361 -0.330934 0.878969
vn -0.343361 -0.330934 0.878969
vn -0.343361 -0.330934 0.878969
vn 0.928039 -0.003609 0.372466
vn 0.928039 -0.003609 0.372466
vn 0.928039 -0.003609 0.372466
vn 0.331160 0.510549 -0.793519
vn 0.331160 0.510549 -0.793519
vn 0.331160 0.510549 -0.793519
s off
g pasted__pPyramid1 group6
usemtl initialShadingGroup
f 36/71/113 39/74/114 38/73/115 37/72/116
f 36/75/117 37/76/118 40/80/119
f 37/76/120 38/77/121 40/80/122
f 38/77/123 39/78/124 40/80/125
f 39/78/126 36/79/127 40/80/128
g default
v 0.155742 -0.668101 -0.191763
v -0.038083 -0.630978 -0.126061
v 0.155742 -0.593855 -0.060359
v 0.349567 -0.630978 -0.126061
v 0.155742 0.560630 -0.799343
vt 0.500000 0.000000
vt 0.250000 0.250000
vt 0.500000 0.500000
vt 0.750000 0.250000
vt 0.250000 0.500000
vt 0.375000 0.500000
vt 0.500000 0.500000
vt 0.625000 0.500000
vt 0.750000 0.500000
vt 0.500000 1.000000
vn 0.000000 -0.870636 0.491927
vn 0.000000 -0.870636 0.491927
vn 0.000000 -0.870636 0.491927
vn 0.000000 -0.870636 0.491927
vn -0.362337 -0.413128 -0.835486
vn -0.362337 -0.413128 -0.835486
vn -0.362337 -0.413128 -0.835486
vn -0.362337 0.502478 0.785002
vn -0.362337 0.502478 0.785002
vn -0.362337 0.502478 0.785002
vn 0.362337 0.502478 0.785002
vn 0.362337 0.502478 0.785002
vn 0.362337 0.502478 0.785002
vn 0.362337 -0.413128 -0.835486
vn 0.362337 -0.413128 -0.835486
vn 0.362337 -0.413129 -0.835486
s off
g pasted__pPyramid1 group7
usemtl initialShadingGroup
f 41/81/129 44/84/130 43/83/131 42/82/132
f 41/85/133 42/86/134 45/90/135
f 42/86/136 43/87/137 45/90/138
f 43/87/139 44/88/140 45/90/141
f 44/88/142 41/89/143 45/90/144
g default
v 0.015194 -0.336092 0.319558
v -0.101983 -0.323055 0.444397
v 0.015194 -0.394151 0.547837
v 0.132370 -0.407189 0.422999
v 0.490623 0.878714 0.750047
vt 0.500000 0.000000
vt 0.250000 0.250000
vt 0.500000 0.500000
vt 0.750000 0.250000
vt 0.250000 0.500000
vt 0.375000 0.500000
vt 0.500000 0.500000
vt 0.625000 0.500000
vt 0.750000 0.500000
vt 0.500000 1.000000
vn -0.347368 -0.908796 -0.231137
vn -0.347368 -0.908796 -0.231137
vn -0.347368 -0.908796 -0.231137
vn -0.347368 -0.908796 -0.231137
vn -0.620198 0.466269 -0.630831
vn -0.620198 0.466269 -0.630831
vn -0.620198 0.466269 -0.630831
vn -0.620198 0.108224 0.776944
vn -0.620198 0.108224 0.776944
vn -0.620198 0.108224 0.776944
vn 0.663617 -0.352674 0.659722
vn 0.663617 -0.352674 0.659722
vn 0.663617 -0.352674 0.659722
vn 0.663617 0.005371 -0.748053
vn 0.663617 0.005371 -0.748053
vn 0.663618 0.005371 -0.748053
s off
g pasted__pPyramid1 group8
usemtl initialShadingGroup
f 46/91/145 49/94/146 48/93/147 47/92/148
f 46/95/149 47/96/150 50/100/151
f 47/96/152 48/97/153 50/100/154
f 48/97/155 49/98/156 50/100/157
f 49/98/158 46/99/159 50/100/160
g default
v 0.074814 -0.212203 -0.047643
v -0.014804 -0.127555 0.142134
v 0.095948 -0.136812 0.331911
v 0.185566 -0.221460 0.142134
v 0.444748 1.107511 -0.136103
vt 0.500000 0.000000
vt 0.250000 0.250000
vt 0.500000 0.500000
vt 0.750000 0.250000
vt 0.250000 0.500000
vt 0.375000 0.500000
vt 0.500000 0.500000
vt 0.625000 0.500000
vt 0.750000 0.500000
vt 0.500000 1.000000
vn -0.415843 -0.887307 0.199400
vn -0.415843 -0.887307 0.199400
vn -0.415843 -0.887307 0.199400
vn -0.415843 -0.887307 0.199400
vn -0.846788 0.204450 -0.491070
vn -0.846788 0.204450 -0.491070
vn -0.846788 0.204450 -0.491070
vn -0.783402 0.398871 0.476638
vn -0.783402 0.398871 0.476638
vn -0.783402 0.398871 0.476638
vn 0.887594 -0.078059 0.453965
vn 0.887594 -0.078059 0.453965
vn 0.887594 -0.078059 0.453965
vn 0.827105 -0.265069 -0.495617
vn 0.827105 -0.265069 -0.495617
vn 0.827105 -0.265069 -0.495617
s off
g pasted__pPyramid1 group9
usemtl initialShadingGroup
f 51/101/161 54/104/162 53/103/163 52/102/164
f 51/105/165 52/106/166 55/110/167
f 52/106/168 53/107/169 55/110/170
f 53/107/171 54/108/172 55/110/173
f 54/108/174 51/109/175 55/110/176
