# This file uses centimeters as units for non-parametric coordinates.

mtllib levelRound.mtl
g default
v 0.557496 -0.154376 -0.847477
v -0.288514 -0.154376 -1.040574
v -0.966962 -0.154376 -0.499530
v -0.966962 -0.154376 0.368238
v -0.288515 -0.154376 0.909282
v 0.557496 -0.154376 0.716186
v 0.934006 -0.154376 -0.065646
v 0.557496 0.154376 -0.847477
v -0.288514 0.154376 -1.040574
v -0.966962 0.154376 -0.499530
v -0.966962 0.154376 0.368238
v -0.288515 0.154376 0.909282
v 0.557496 0.154376 0.716186
v 0.934006 0.154376 -0.065646
v -0.065994 -0.154376 -0.065646
v -0.065994 0.154376 -0.065646
v 0.070447 0.152637 -0.858412
v -0.136208 0.152637 -0.654053
v 0.070447 0.152637 -0.449693
v 0.277101 0.152637 -0.654053
v 0.070447 0.889460 -0.654053
vt 0.597420 0.034089
vt 0.465231 0.003918
vt 0.359224 0.088456
vt 0.359224 0.224044
vt 0.465231 0.308582
vt 0.597420 0.278411
vt 0.656250 0.156250
vt 0.375000 0.312500
vt 0.410714 0.312500
vt 0.446429 0.312500
vt 0.482143 0.312500
vt 0.517857 0.312500
vt 0.553571 0.312500
vt 0.589286 0.312500
vt 0.625000 0.312500
vt 0.375000 0.688440
vt 0.410714 0.688440
vt 0.446429 0.688440
vt 0.482143 0.688440
vt 0.517857 0.688440
vt 0.553571 0.688440
vt 0.589286 0.688440
vt 0.625000 0.688440
vt 0.597420 0.721589
vt 0.465231 0.691418
vt 0.359224 0.775956
vt 0.359224 0.911544
vt 0.465231 0.996082
vt 0.597420 0.965911
vt 0.656250 0.843750
vt 0.500000 0.150000
vt 0.500000 0.837500
vt 0.500000 0.000000
vt 0.750000 0.250000
vt 0.500000 0.500000
vt 0.250000 0.250000
vt 0.250000 0.500000
vt 0.375000 0.500000
vt 0.500000 1.000000
vt 0.500000 0.500000
vt 0.625000 0.500000
vt 0.750000 0.500000
vn 0.222521 0.000000 -0.974928
vn 0.222521 0.000000 -0.974928
vn 0.222521 0.000000 -0.974928
vn 0.222521 0.000000 -0.974928
vn -0.623490 0.000000 -0.781832
vn -0.623490 0.000000 -0.781832
vn -0.623490 0.000000 -0.781832
vn -0.623490 0.000000 -0.781832
vn -1.000000 0.000000 -0.000000
vn -1.000000 0.000000 -0.000000
vn -1.000000 0.000000 -0.000000
vn -1.000000 0.000000 -0.000000
vn -0.623490 0.000000 0.781832
vn -0.623490 0.000000 0.781832
vn -0.623490 0.000000 0.781832
vn -0.623490 0.000000 0.781832
vn 0.222521 0.000000 0.974928
vn 0.222521 0.000000 0.974928
vn 0.222521 0.000000 0.974928
vn 0.222521 0.000000 0.974928
vn 0.900969 0.000000 0.433884
vn 0.900969 0.000000 0.433884
vn 0.900969 0.000000 0.433884
vn 0.900969 0.000000 0.433884
vn 0.900969 0.000000 -0.433884
vn 0.900969 0.000000 -0.433884
vn 0.900969 0.000000 -0.433884
vn 0.900969 0.000000 -0.433884
vn 0.000000 -1.000000 -0.000000
vn 0.000000 -1.000000 0.000000
vn 0.000000 -1.000000 0.000000
vn 0.000000 -1.000000 -0.000000
vn 0.000000 -1.000000 0.000000
vn 0.000000 -1.000000 -0.000000
vn 0.000000 -1.000000 -0.000000
vn 0.000000 -1.000000 0.000000
vn 0.000000 1.000000 0.000000
vn 0.000000 1.000000 -0.000000
vn 0.000000 1.000000 0.000000
vn 0.000000 1.000000 -0.000000
vn 0.000000 1.000000 0.000000
vn 0.000000 1.000000 0.000000
vn 0.000000 1.000000 0.000000
vn 0.000000 1.000000 0.000000
vn 0.000000 -1.000000 0.000000
vn 0.000000 -1.000000 0.000000
vn 0.000000 -1.000000 0.000000
vn 0.000000 -1.000000 0.000000
vn -0.689862 0.193483 -0.697607
vn -0.689862 0.193483 -0.697607
vn -0.689862 0.193483 -0.697607
vn -0.689861 0.193483 0.697607
vn -0.689861 0.193483 0.697607
vn -0.689861 0.193483 0.697607
vn 0.689861 0.193483 0.697607
vn 0.689861 0.193483 0.697607
vn 0.689861 0.193483 0.697607
vn 0.689862 0.193483 -0.697607
vn 0.689862 0.193483 -0.697607
vn 0.689862 0.193483 -0.697607
s 1
g pCylinder4
usemtl initialShadingGroup
f 1/8/1 2/9/2 8/16/3
f 8/16/3 2/9/2 9/17/4
s 2
f 2/9/5 3/10/6 9/17/7
f 9/17/7 3/10/6 10/18/8
s 3
f 3/10/9 4/11/10 10/18/11
f 10/18/11 4/11/10 11/19/12
s 4
f 4/11/13 5/12/14 11/19/15
f 11/19/15 5/12/14 12/20/16
s 5
f 5/12/17 6/13/18 12/20/19
f 12/20/19 6/13/18 13/21/20
s 6
f 6/13/21 7/14/22 13/21/23
f 13/21/23 7/14/22 14/22/24
s 7
f 7/14/25 1/15/26 14/22/27
f 14/22/27 1/15/26 8/23/28
s 8
f 2/2/29 1/1/30 15/31/31
f 3/3/32 2/2/29 15/31/31
f 4/4/33 3/3/32 15/31/31
f 5/5/34 4/4/33 15/31/31
f 6/6/35 5/5/34 15/31/31
f 7/7/36 6/6/35 15/31/31
f 1/1/30 7/7/36 15/31/31
s 9
f 8/29/37 9/28/38 16/32/39
f 9/28/38 10/27/40 16/32/39
f 10/27/40 11/26/41 16/32/39
f 11/26/41 12/25/42 16/32/39
f 12/25/42 13/24/43 16/32/39
f 13/24/43 14/30/44 16/32/39
f 14/30/44 8/29/37 16/32/39
s 10
f 20/34/45 19/35/46 17/33/47
f 17/33/47 19/35/46 18/36/48
s off
f 17/37/49 18/38/50 21/39/51
f 18/38/52 19/40/53 21/39/54
f 19/40/55 20/41/56 21/39/57
f 20/41/58 17/42/59 21/39/60
