# This file uses centimeters as units for non-parametric coordinates.

mtllib sheep1.mtl
g default1
v 2.647063 3.521321 3.195080
v -2.826654 3.638835 3.062449
v -0.526147 4.092640 6.279567
v -0.191883 -1.331156 6.693566
v 0.810366 -5.168449 3.437226
v 1.810366 -5.168449 3.437226
v 0.810366 0.133067 3.437226
v 1.810366 0.133067 3.437226
v 0.810366 0.133067 2.437226
v 1.810366 0.133067 2.437226
v 0.810366 -5.168449 2.437226
v 1.810366 -5.168449 2.437226
v 0.810366 -5.168449 3.437226
v 1.810366 -5.168449 3.437226
v 1.810366 0.133067 3.437226
v 0.810366 0.133067 3.437226
v 1.810366 0.133067 2.437226
v 0.810366 0.133067 2.437226
v 1.810366 -5.168449 2.437226
v 0.810366 -5.168449 2.437226
v -1.978176 -5.168449 3.437226
v -0.978176 -5.168449 3.437226
v -1.978176 0.133067 3.437226
v -0.978176 0.133067 3.437226
v -1.978176 0.133067 2.437226
v -0.978176 0.133067 2.437226
v -1.978176 -5.168449 2.437226
v -0.978176 -5.168449 2.437226
v 0.810366 -5.168449 -2.326582
v 1.810366 -5.168449 -2.326582
v 0.810366 0.133067 -2.326582
v 1.810366 0.133067 -2.326582
v 0.810366 0.133067 -3.326582
v 1.810366 0.133067 -3.326582
v 0.810366 -5.168449 -3.326582
v 1.810366 -5.168449 -3.326582
v 0.810366 -5.168449 -2.326582
v 1.810366 -5.168449 -2.326582
v 1.810366 0.133067 -2.326582
v 0.810366 0.133067 -2.326582
v 1.810366 0.133067 -3.326582
v 0.810366 0.133067 -3.326582
v 1.810366 -5.168449 -3.326582
v 0.810366 -5.168449 -3.326582
v -1.978176 -5.168449 -2.326582
v -0.978176 -5.168449 -2.326582
v -1.978176 0.133067 -2.326582
v -0.978176 0.133067 -2.326582
v -1.978176 0.133067 -3.326582
v -0.978176 0.133067 -3.326582
v -1.978176 -5.168449 -3.326582
v -0.978176 -5.168449 -3.326582
vt 0.000000 0.600000
vt 0.200000 0.600000
vt 0.875000 1.000000
vt 1.000000 0.600000
vt 0.075000 0.000000
vt 0.275000 0.000000
vt 0.875000 0.000000
vt 0.075000 1.000000
vt 0.375000 0.000000
vt 0.625000 0.000000
vt 0.625000 0.250000
vt 0.375000 0.250000
vt 0.625000 0.500000
vt 0.375000 0.500000
vt 0.625000 0.750000
vt 0.375000 0.750000
vt 0.625000 1.000000
vt 0.375000 1.000000
vt 0.875000 0.000000
vt 0.875000 0.250000
vt 0.125000 0.000000
vt 0.125000 0.250000
vt 0.375000 0.000000
vt 0.625000 0.000000
vt 0.625000 0.250000
vt 0.375000 0.250000
vt 0.625000 0.500000
vt 0.375000 0.500000
vt 0.625000 0.750000
vt 0.375000 0.750000
vt 0.625000 1.000000
vt 0.375000 1.000000
vt 0.875000 0.000000
vt 0.875000 0.250000
vt 0.125000 0.000000
vt 0.125000 0.250000
vt 0.375000 0.000000
vt 0.625000 0.000000
vt 0.625000 0.250000
vt 0.375000 0.250000
vt 0.625000 0.500000
vt 0.375000 0.500000
vt 0.625000 0.750000
vt 0.375000 0.750000
vt 0.625000 1.000000
vt 0.375000 1.000000
vt 0.875000 0.000000
vt 0.875000 0.250000
vt 0.125000 0.000000
vt 0.125000 0.250000
vt 0.375000 0.000000
vt 0.625000 0.000000
vt 0.625000 0.250000
vt 0.375000 0.250000
vt 0.625000 0.500000
vt 0.375000 0.500000
vt 0.625000 0.750000
vt 0.375000 0.750000
vt 0.625000 1.000000
vt 0.375000 1.000000
vt 0.875000 0.000000
vt 0.875000 0.250000
vt 0.125000 0.000000
vt 0.125000 0.250000
vt 0.375000 0.000000
vt 0.625000 0.000000
vt 0.625000 0.250000
vt 0.375000 0.250000
vt 0.625000 0.500000
vt 0.375000 0.500000
vt 0.625000 0.750000
vt 0.375000 0.750000
vt 0.625000 1.000000
vt 0.375000 1.000000
vt 0.875000 0.000000
vt 0.875000 0.250000
vt 0.125000 0.000000
vt 0.125000 0.250000
vt 0.375000 0.000000
vt 0.625000 0.000000
vt 0.625000 0.250000
vt 0.375000 0.250000
vt 0.625000 0.500000
vt 0.375000 0.500000
vt 0.625000 0.750000
vt 0.375000 0.750000
vt 0.625000 1.000000
vt 0.375000 1.000000
vt 0.875000 0.000000
vt 0.875000 0.250000
vt 0.125000 0.000000
vt 0.125000 0.250000
vn 0.635086 -0.272015 -0.722962
vn -0.150278 0.486694 0.860549
vn 0.092661 -0.957626 0.272701
vn -0.701293 -0.060076 -0.710337
vn 0.635086 -0.272015 -0.722962
vn 0.092661 -0.957626 0.272701
vn -0.150278 0.486694 0.860549
vn -0.701293 -0.060076 -0.710337
vn 0.092661 -0.957626 0.272701
vn -0.150278 0.486694 0.860549
vn 0.635086 -0.272015 -0.722962
vn -0.701293 -0.060076 -0.710337
vn 0.000000 0.000000 1.000000
vn 0.000000 0.000000 1.000000
vn 0.000000 0.000000 1.000000
vn 0.000000 0.000000 1.000000
vn 0.000000 1.000000 0.000000
vn 0.000000 1.000000 0.000000
vn 0.000000 1.000000 0.000000
vn 0.000000 1.000000 0.000000
vn 0.000000 0.000000 -1.000000
vn 0.000000 0.000000 -1.000000
vn 0.000000 0.000000 -1.000000
vn 0.000000 0.000000 -1.000000
vn 0.000000 -1.000000 0.000000
vn 0.000000 -1.000000 0.000000
vn 0.000000 -1.000000 0.000000
vn 0.000000 -1.000000 0.000000
vn 1.000000 0.000000 0.000000
vn 1.000000 0.000000 0.000000
vn 1.000000 0.000000 0.000000
vn 1.000000 0.000000 0.000000
vn -1.000000 0.000000 0.000000
vn -1.000000 0.000000 0.000000
vn -1.000000 0.000000 0.000000
vn -1.000000 0.000000 0.000000
vn 0.000000 0.000000 1.000000
vn 0.000000 0.000000 1.000000
vn 0.000000 0.000000 1.000000
vn 0.000000 0.000000 1.000000
vn 0.000000 1.000000 0.000000
vn 0.000000 1.000000 0.000000
vn 0.000000 1.000000 0.000000
vn 0.000000 1.000000 0.000000
vn 0.000000 0.000000 -1.000000
vn 0.000000 0.000000 -1.000000
vn 0.000000 0.000000 -1.000000
vn 0.000000 0.000000 -1.000000
vn 0.000000 -1.000000 0.000000
vn 0.000000 -1.000000 0.000000
vn 0.000000 -1.000000 0.000000
vn 0.000000 -1.000000 0.000000
vn 1.000000 0.000000 0.000000
vn 1.000000 0.000000 0.000000
vn 1.000000 0.000000 0.000000
vn 1.000000 0.000000 0.000000
vn -1.000000 0.000000 0.000000
vn -1.000000 0.000000 0.000000
vn -1.000000 0.000000 0.000000
vn -1.000000 0.000000 0.000000
vn 0.000000 0.000000 1.000000
vn 0.000000 0.000000 1.000000
vn 0.000000 0.000000 1.000000
vn 0.000000 0.000000 1.000000
vn 0.000000 1.000000 0.000000
vn 0.000000 1.000000 0.000000
vn 0.000000 1.000000 0.000000
vn 0.000000 1.000000 0.000000
vn 0.000000 0.000000 -1.000000
vn 0.000000 0.000000 -1.000000
vn 0.000000 0.000000 -1.000000
vn 0.000000 0.000000 -1.000000
vn 0.000000 -1.000000 0.000000
vn 0.000000 -1.000000 0.000000
vn 0.000000 -1.000000 0.000000
vn 0.000000 -1.000000 0.000000
vn 1.000000 0.000000 0.000000
vn 1.000000 0.000000 0.000000
vn 1.000000 0.000000 0.000000
vn 1.000000 0.000000 0.000000
vn -1.000000 0.000000 0.000000
vn -1.000000 0.000000 0.000000
vn -1.000000 0.000000 0.000000
vn -1.000000 0.000000 0.000000
vn 0.000000 0.000000 1.000000
vn 0.000000 0.000000 1.000000
vn 0.000000 0.000000 1.000000
vn 0.000000 0.000000 1.000000
vn 0.000000 1.000000 0.000000
vn 0.000000 1.000000 0.000000
vn 0.000000 1.000000 0.000000
vn 0.000000 1.000000 0.000000
vn 0.000000 0.000000 -1.000000
vn 0.000000 0.000000 -1.000000
vn 0.000000 0.000000 -1.000000
vn 0.000000 0.000000 -1.000000
vn 0.000000 -1.000000 0.000000
vn 0.000000 -1.000000 0.000000
vn 0.000000 -1.000000 0.000000
vn 0.000000 -1.000000 0.000000
vn 1.000000 0.000000 0.000000
vn 1.000000 0.000000 0.000000
vn 1.000000 0.000000 0.000000
vn 1.000000 0.000000 0.000000
vn -1.000000 0.000000 0.000000
vn -1.000000 0.000000 0.000000
vn -1.000000 0.000000 0.000000
vn -1.000000 0.000000 0.000000
vn 0.000000 0.000000 1.000000
vn 0.000000 0.000000 1.000000
vn 0.000000 0.000000 1.000000
vn 0.000000 0.000000 1.000000
vn 0.000000 1.000000 0.000000
vn 0.000000 1.000000 0.000000
vn 0.000000 1.000000 0.000000
vn 0.000000 1.000000 0.000000
vn 0.000000 0.000000 -1.000000
vn 0.000000 0.000000 -1.000000
vn 0.000000 0.000000 -1.000000
vn 0.000000 0.000000 -1.000000
vn 0.000000 -1.000000 0.000000
vn 0.000000 -1.000000 0.000000
vn 0.000000 -1.000000 0.000000
vn 0.000000 -1.000000 0.000000
vn 1.000000 0.000000 0.000000
vn 1.000000 0.000000 0.000000
vn 1.000000 0.000000 0.000000
vn 1.000000 0.000000 0.000000
vn -1.000000 0.000000 0.000000
vn -1.000000 0.000000 0.000000
vn -1.000000 0.000000 0.000000
vn -1.000000 0.000000 0.000000
vn 0.000000 0.000000 1.000000
vn 0.000000 0.000000 1.000000
vn 0.000000 0.000000 1.000000
vn 0.000000 0.000000 1.000000
vn 0.000000 1.000000 0.000000
vn 0.000000 1.000000 0.000000
vn 0.000000 1.000000 0.000000
vn 0.000000 1.000000 0.000000
vn 0.000000 0.000000 -1.000000
vn 0.000000 0.000000 -1.000000
vn 0.000000 0.000000 -1.000000
vn 0.000000 0.000000 -1.000000
vn 0.000000 -1.000000 0.000000
vn 0.000000 -1.000000 0.000000
vn 0.000000 -1.000000 0.000000
vn 0.000000 -1.000000 0.000000
vn 1.000000 0.000000 0.000000
vn 1.000000 0.000000 0.000000
vn 1.000000 0.000000 0.000000
vn 1.000000 0.000000 0.000000
vn -1.000000 0.000000 0.000000
vn -1.000000 0.000000 0.000000
vn -1.000000 0.000000 0.000000
vn -1.000000 0.000000 0.000000
s off
g initialShadingGroup pSphere2 polySurface1
f 1/2/1 3/1/2 4/5/3
f 2/3/4 1/2/5 4/6/6
f 3/4/7 2/3/8 4/7/9
f 3/1/10 1/2/11 2/8/12
g initialShadingGroup polySurface9 polySurface10 polySurface1
f 5/9/13 6/10/14 8/11/15 7/12/16
f 7/12/17 8/11/18 10/13/19 9/14/20
f 9/14/21 10/13/22 12/15/23 11/16/24
f 11/16/25 12/15/26 6/17/27 5/18/28
f 6/10/29 12/19/30 10/20/31 8/11/32
f 11/21/33 5/9/34 7/12/35 9/22/36
g initialShadingGroup polySurface10 polySurface11 polySurface1
f 13/23/37 14/24/38 15/25/39 16/26/40
f 16/26/41 15/25/42 17/27/43 18/28/44
f 18/28/45 17/27/46 19/29/47 20/30/48
f 20/30/49 19/29/50 14/31/51 13/32/52
f 14/24/53 19/33/54 17/34/55 15/25/56
f 20/35/57 13/23/58 16/26/59 18/36/60
g initialShadingGroup polySurface10 polySurface12 polySurface1
f 21/37/61 22/38/62 24/39/63 23/40/64
f 23/40/65 24/39/66 26/41/67 25/42/68
f 25/42/69 26/41/70 28/43/71 27/44/72
f 27/44/73 28/43/74 22/45/75 21/46/76
f 22/38/77 28/47/78 26/48/79 24/39/80
f 27/49/81 21/37/82 23/40/83 25/50/84
g initialShadingGroup polySurface10 polySurface18 polySurface1
f 29/51/85 30/52/86 32/53/87 31/54/88
f 31/54/89 32/53/90 34/55/91 33/56/92
f 33/56/93 34/55/94 36/57/95 35/58/96
f 35/58/97 36/57/98 30/59/99 29/60/100
f 30/52/101 36/61/102 34/62/103 32/53/104
f 35/63/105 29/51/106 31/54/107 33/64/108
g initialShadingGroup polySurface10 polySurface19 polySurface1
f 37/65/109 38/66/110 39/67/111 40/68/112
f 40/68/113 39/67/114 41/69/115 42/70/116
f 42/70/117 41/69/118 43/71/119 44/72/120
f 44/72/121 43/71/122 38/73/123 37/74/124
f 38/66/125 43/75/126 41/76/127 39/67/128
f 44/77/129 37/65/130 40/68/131 42/78/132
g initialShadingGroup polySurface10 polySurface20 polySurface1
f 45/79/133 46/80/134 48/81/135 47/82/136
f 47/82/137 48/81/138 50/83/139 49/84/140
f 49/84/141 50/83/142 52/85/143 51/86/144
f 51/86/145 52/85/146 46/87/147 45/88/148
f 46/80/149 52/89/150 50/90/151 48/81/152
f 51/91/153 45/79/154 47/82/155 49/92/156
